<?xml version="1.0" encoding="UTF-8" standalone="no"?>
<svg
   viewBox="0 0 549.32294 486.2196"
   version="1.1"
   id="svg127"
   sodipodi:docname="agile.svg"
   width="549.32294"
   height="486.2196"
   inkscape:version="1.3.2 (091e20e, 2023-11-25, custom)"
   xmlns:inkscape="http://www.inkscape.org/namespaces/inkscape"
   xmlns:sodipodi="http://sodipodi.sourceforge.net/DTD/sodipodi-0.dtd"
   xmlns="http://www.w3.org/2000/svg"
   xmlns:svg="http://www.w3.org/2000/svg">
  <defs
     id="defs127" />
  <sodipodi:namedview
     id="namedview127"
     pagecolor="#ffffff"
     bordercolor="#000000"
     borderopacity="0.25"
     inkscape:showpageshadow="2"
     inkscape:pageopacity="0.0"
     inkscape:pagecheckerboard="0"
     inkscape:deskcolor="#d1d1d1"
     inkscape:zoom="1.1610693"
     inkscape:cx="231.68298"
     inkscape:cy="251.06166"
     inkscape:window-width="1920"
     inkscape:window-height="1017"
     inkscape:window-x="-8"
     inkscape:window-y="-8"
     inkscape:window-maximized="1"
     inkscape:current-layer="svg127" />
  <g
     id="freepik--background-complete--inject-195"
     transform="translate(-45.647575)">
    <path
       d="m 88.4,96.48 c 5.59,-8.88 15,-11 23.63,-9 A 37.24,37.24 0 0 1 185.75,77.2 c 8.9,-6.31 22.26,-2 28.79,6.7 6.53,8.7 6.93,27.41 -0.72,36.21 L 90.55,119.4 c 0,0 -9.39,-11.4 -2.15,-22.92 z"
       style="fill:#e0e0e0"
       id="path1" />
    <path
       d="m 95.47,96.48 c 5.59,-8.88 15,-11 23.63,-9 A 37.24,37.24 0 0 1 192.82,77.2 c 8.9,-6.31 22.26,-2 28.79,6.7 6.53,8.7 6.93,27.41 -0.72,36.21 L 97.62,119.4 c 0,0 -9.39,-11.4 -2.15,-22.92 z"
       style="fill:#f5f5f5"
       id="path2" />
    <path
       d="M 490.54,46.42 H 464.28 A 3.31,3.31 0 0 1 461,43.11 v 0 a 3.31,3.31 0 0 1 3.31,-3.31 h 26.26 a 3.32,3.32 0 0 1 3.32,3.31 v 0 a 3.32,3.32 0 0 1 -3.35,3.31 z"
       style="fill:#e0e0e0"
       id="path3" />
    <path
       d="m 451.73,46.42 h -26.27 a 3.31,3.31 0 0 1 -3.31,-3.31 v 0 a 3.31,3.31 0 0 1 3.31,-3.31 h 26.27 a 3.32,3.32 0 0 1 3.27,3.31 v 0 a 3.31,3.31 0 0 1 -3.27,3.31 z"
       style="fill:#e0e0e0"
       id="path4" />
    <path
       d="m 451.73,70.75 h -26.27 a 3.31,3.31 0 0 1 -3.31,-3.31 v 0 a 3.31,3.31 0 0 1 3.31,-3.31 h 26.27 a 3.31,3.31 0 0 1 3.27,3.31 v 0 a 3.31,3.31 0 0 1 -3.27,3.31 z"
       style="fill:#e0e0e0"
       id="path5" />
    <path
       d="m 490.79,58.59 h -65.22 a 3.31,3.31 0 0 1 -3.31,-3.31 v 0 A 3.31,3.31 0 0 1 425.57,52 h 65.22 a 3.31,3.31 0 0 1 3.31,3.31 v 0 a 3.31,3.31 0 0 1 -3.31,3.28 z"
       style="fill:#e0e0e0"
       id="path6" />
    <path
       d="m 404.48,43.11 a 2.85,2.85 0 1 1 -2.85,-2.85 2.85,2.85 0 0 1 2.85,2.85 z"
       style="fill:#e0e0e0"
       id="path7" />
    <path
       d="m 400.19,43.11 a 2.89,2.89 0 0 1 -0.66,0.06 h -1.88 l -6.93,0.08 -22.84,0.07 c -10.48,0 -19.79,0 -25.59,-0.1 l 0.15,-0.16 c 0,2.08 -0.05,3.75 -0.07,5 v 1.32 a 2,2 0 0 1 0,0.45 1.66,1.66 0 0 1 -0.05,-0.45 c 0,-0.35 0,-0.78 0,-1.32 l -0.07,-5 V 43 h 0.16 c 5.8,-0.07 15.11,-0.11 25.59,-0.11 l 22.84,0.08 6.93,0.08 1.88,0.05 a 5,5 0 0 1 0.54,0.01 z"
       style="fill:#e0e0e0"
       id="path8" />
    <path
       d="m 276.49,416.17 h -26.27 a 3.31,3.31 0 0 1 -3.31,-3.31 v 0 a 3.31,3.31 0 0 1 3.31,-3.31 h 26.27 a 3.31,3.31 0 0 1 3.31,3.31 v 0 a 3.31,3.31 0 0 1 -3.31,3.31 z"
       style="fill:#e0e0e0"
       id="path9" />
    <path
       d="M 237.67,416.17 H 211.4 a 3.31,3.31 0 0 1 -3.31,-3.31 v 0 a 3.31,3.31 0 0 1 3.31,-3.31 h 26.27 a 3.31,3.31 0 0 1 3.31,3.31 v 0 a 3.31,3.31 0 0 1 -3.31,3.31 z"
       style="fill:#e0e0e0"
       id="path10" />
    <path
       d="M 237.67,440.5 H 211.4 a 3.31,3.31 0 0 1 -3.31,-3.31 v 0 a 3.32,3.32 0 0 1 3.31,-3.32 h 26.27 a 3.32,3.32 0 0 1 3.31,3.32 v 0 a 3.32,3.32 0 0 1 -3.31,3.31 z"
       style="fill:#e0e0e0"
       id="path11" />
    <path
       d="M 276.73,428.33 H 211.51 A 3.31,3.31 0 0 1 208.2,425 v 0 a 3.31,3.31 0 0 1 3.31,-3.31 h 65.22 A 3.31,3.31 0 0 1 280,425 v 0 a 3.31,3.31 0 0 1 -3.27,3.33 z"
       style="fill:#e0e0e0"
       id="path12" />
    <path
       d="m 193.51,411.5 a 2.85,2.85 0 1 1 -2.85,-2.85 2.85,2.85 0 0 1 2.85,2.85 z"
       style="fill:#e0e0e0"
       id="path13" />
    <path
       d="m 190.66,410.77 c -0.15,0 -0.26,-9.17 -0.26,-20.49 0,-11.32 0.11,-20.49 0.26,-20.49 0.15,0 0.26,9.18 0.26,20.49 0,11.31 -0.12,20.49 -0.26,20.49 z"
       style="fill:#e0e0e0"
       id="path14" />
    <polygon
       points="482.31,448.02 407.22,448.02 407.22,472.44 442.92,472.44 482.31,472.44 "
       style="fill:#f5f5f5"
       id="polygon17" />
    <polygon
       points="442.92,441.2 404.07,441.2 404.07,448.02 484.93,448.02 484.93,441.2 "
       style="fill:#ebebeb"
       id="polygon18" />
    <polygon
       points="484.93,441.2 442.92,441.2 442.92,447.39 444.5,472.44 482.31,472.44 482.31,448.02 484.93,448.02 "
       style="fill:#ebebeb"
       id="polygon19" />
    <rect
       x="417.72"
       y="451.95999"
       width="15.23"
       height="3.6800001"
       style="fill:#e0e0e0"
       id="rect19" />
    <rect
       x="415.76001"
       y="460.23001"
       width="19.549999"
       height="7.7600002"
       style="fill:#ffffff"
       id="rect20" />
  </g>
  <g
     id="freepik--Data--inject-195"
     transform="translate(-45.647575)">
    <path
       d="m 137.06,179.31 a 5.2,5.2 0 0 1 -0.82,0.05 h -2.37 l -8.69,0.08 -28.7,0.08 h -11 l 0.26,-0.25 c 0,8.52 -0.07,15.9 -0.1,21.21 0,2.59 0,4.67 -0.07,6.16 v 1.64 a 2.49,2.49 0 0 1 0,0.57 4.92,4.92 0 0 1 0,-0.57 v -1.64 c 0,-1.49 0,-3.57 -0.07,-6.16 0,-5.31 -0.06,-12.69 -0.1,-21.21 v -0.25 h 11.08 l 28.7,0.07 8.69,0.09 h 2.37 a 4,4 0 0 1 0.82,0.13 z"
       style="fill:#263238"
       id="path21" />
    <path
       d="m 87.35,209 a 2,2 0 1 1 -2,-2 2,2 0 0 1 2,2 z"
       style="fill:#263238"
       id="path22" />
    <rect
       x="60.639999"
       y="226.59"
       width="65.779999"
       height="6.6199999"
       rx="3.3099999"
       style="fill:#e0e0e0"
       id="rect22" />
    <path
       d="M 123.11,247.62 H 64 a 3.31,3.31 0 0 1 -3.31,-3.31 v 0 A 3.31,3.31 0 0 1 64,241 h 59.16 a 3.31,3.31 0 0 1 3.31,3.31 v 0 a 3.31,3.31 0 0 1 -3.36,3.31 z"
       style="fill:#e0e0e0"
       id="path23" />
    <path
       d="M 80.06,262.81 H 64 a 3.31,3.31 0 0 1 -3.31,-3.31 v 0 A 3.31,3.31 0 0 1 64,256.19 h 16.06 a 3.31,3.31 0 0 1 3.31,3.31 v 0 a 3.31,3.31 0 0 1 -3.31,3.31 z"
       style="fill:#e0e0e0"
       id="path24" />
    <path
       d="m 551.88,137.35 h -59.16 a 3.31,3.31 0 0 1 -3.31,-3.31 v 0 a 3.31,3.31 0 0 1 3.31,-3.31 h 59.16 a 3.31,3.31 0 0 1 3.31,3.31 v 0 a 3.31,3.31 0 0 1 -3.31,3.31 z"
       style="fill:#e0e0e0"
       id="path25" />
    <path
       d="m 496.21,110.84 1,2.07 a 0.85,0.85 0 0 0 0.64,0.46 l 2.29,0.34 a 0.84,0.84 0 0 1 0.47,1.43 l -1.61,1.62 a 0.82,0.82 0 0 0 -0.24,0.74 l 0.39,2.29 a 0.84,0.84 0 0 1 -1.22,0.88 l -2,-1.07 a 0.85,0.85 0 0 0 -0.79,0 l -2.14,1.07 a 0.84,0.84 0 0 1 -1.22,-0.88 l 0.39,-2.29 a 0.82,0.82 0 0 0 -0.24,-0.74 l -1.66,-1.62 a 0.84,0.84 0 0 1 0.47,-1.43 l 2.29,-0.34 a 0.83,0.83 0 0 0 0.63,-0.46 l 1,-2.07 a 0.84,0.84 0 0 1 1.55,0 z"
       style="fill:#4a9fe0"
       id="path26" />
    <path
       d="m 509.59,110.84 1,2.07 a 0.83,0.83 0 0 0 0.63,0.46 l 2.3,0.34 a 0.84,0.84 0 0 1 0.46,1.43 l -1.66,1.62 a 0.84,0.84 0 0 0 -0.24,0.74 l 0.39,2.29 a 0.84,0.84 0 0 1 -1.22,0.88 l -2,-1.07 a 0.83,0.83 0 0 0 -0.78,0 l -2.05,1.07 a 0.84,0.84 0 0 1 -1.22,-0.88 l 0.39,-2.29 a 0.82,0.82 0 0 0 -0.24,-0.74 l -1.66,-1.62 a 0.84,0.84 0 0 1 0.47,-1.43 l 2.29,-0.34 a 0.83,0.83 0 0 0 0.63,-0.46 l 1,-2.07 a 0.84,0.84 0 0 1 1.51,0 z"
       style="fill:#4a9fe0"
       id="path27" />
    <path
       d="m 523,110.84 1,2.07 a 0.83,0.83 0 0 0 0.63,0.46 l 2.29,0.34 a 0.84,0.84 0 0 1 0.47,1.43 l -1.66,1.62 a 0.82,0.82 0 0 0 -0.24,0.74 l 0.39,2.29 a 0.84,0.84 0 0 1 -1.22,0.88 l -2,-1.07 a 0.83,0.83 0 0 0 -0.78,0 l -2.05,1.07 a 0.85,0.85 0 0 1 -1.23,-0.88 l 0.4,-2.29 a 0.85,0.85 0 0 0 -0.25,-0.74 L 517,115.14 a 0.84,0.84 0 0 1 0.46,-1.43 l 2.29,-0.34 a 0.83,0.83 0 0 0 0.64,-0.46 l 1,-2.07 a 0.84,0.84 0 0 1 1.61,0 z"
       style="fill:#4a9fe0"
       id="path28" />
    <path
       d="m 536.34,110.84 1,2.07 a 0.85,0.85 0 0 0 0.64,0.46 l 2.29,0.34 a 0.84,0.84 0 0 1 0.47,1.43 l -1.66,1.62 a 0.82,0.82 0 0 0 -0.24,0.74 l 0.39,2.29 a 0.84,0.84 0 0 1 -1.22,0.88 l -2,-1.07 a 0.85,0.85 0 0 0 -0.79,0 l -2.05,1.07 a 0.84,0.84 0 0 1 -1.22,-0.88 l 0.39,-2.29 a 0.82,0.82 0 0 0 -0.24,-0.74 l -1.66,-1.62 a 0.84,0.84 0 0 1 0.47,-1.43 l 2.29,-0.34 a 0.83,0.83 0 0 0 0.63,-0.46 l 1,-2.07 a 0.84,0.84 0 0 1 1.51,0 z"
       style="fill:#4a9fe0"
       id="path29" />
    <path
       d="m 549.91,110.84 1,2.07 a 0.85,0.85 0 0 0 0.64,0.46 l 2.29,0.34 a 0.84,0.84 0 0 1 0.46,1.43 l -1.65,1.62 a 0.85,0.85 0 0 0 -0.25,0.74 l 0.4,2.29 a 0.85,0.85 0 0 1 -1.23,0.88 l -2.05,-1.07 a 0.83,0.83 0 0 0 -0.78,0 l -2,1.07 a 0.84,0.84 0 0 1 -1.22,-0.88 l 0.39,-2.29 a 0.82,0.82 0 0 0 -0.24,-0.74 L 544,115.14 a 0.84,0.84 0 0 1 0.47,-1.43 l 2.29,-0.34 a 0.83,0.83 0 0 0 0.63,-0.46 l 1,-2.07 a 0.84,0.84 0 0 1 1.52,0 z"
       style="fill:#4a9fe0"
       id="path30" />
    <rect
       x="489.41"
       y="145.14"
       width="65.779999"
       height="6.6199999"
       rx="3.3099999"
       style="fill:#e0e0e0"
       id="rect30" />
    <path
       d="m 508.83,167 h -16.11 a 3.31,3.31 0 0 1 -3.31,-3.31 v 0 a 3.31,3.31 0 0 1 3.31,-3.31 h 16.11 a 3.31,3.31 0 0 1 3.31,3.31 v 0 a 3.31,3.31 0 0 1 -3.31,3.31 z"
       style="fill:#e0e0e0"
       id="path31" />
    <path
       d="m 500.78,182.86 a 4.07,4.07 0 0 1 0.05,0.59 c 0,0.45 0,1 0.05,1.69 0,1.54 0.05,3.64 0.08,6.21 0,5.31 0.05,12.52 0.08,20.49 0,1.66 0,3.3 0,4.86 v 0.3 h -0.25 l -17.2,-0.09 -5.08,-0.08 h -1.36 a 1.87,1.87 0 0 1 -0.48,-0.05 2.7,2.7 0 0 1 0.48,0 h 1.36 l 5.08,-0.08 17.2,-0.09 -0.26,0.26 v -4.86 c 0,-8 0.05,-15.18 0.07,-20.49 0,-2.57 0.06,-4.67 0.09,-6.21 0,-0.68 0,-1.24 0,-1.69 a 2.36,2.36 0 0 1 0.09,-0.76 z"
       style="fill:#263238"
       id="path32" />
    <path
       d="m 503.37,182.86 a 2.86,2.86 0 1 1 -2.86,-2.85 2.86,2.86 0 0 1 2.86,2.85 z"
       style="fill:#263238"
       id="path33" />
  </g>
  <g
     id="freepik--character-1--inject-195"
     transform="translate(-45.647575)">
    <path
       d="m 218.45,149 a 103.88,103.88 0 0 1 172.18,0.95 l 44.44,-22.56 a 153.5,153.5 0 0 0 -260,-2.74 z"
       style="fill:#4a9fe0"
       id="path34" />
    <path
       d="m 218.45,149 a 103.88,103.88 0 0 1 172.18,0.95 l 44.44,-22.56 a 153.5,153.5 0 0 0 -260,-2.74 z"
       style="opacity:0.3;fill:#ffffff"
       id="path35" />
    <rect
       x="313.39001"
       y="311.75"
       width="186.14"
       height="49.599998"
       style="fill:#4a9fe0"
       id="rect35" />
    <path
       d="m 479.22,276.05 v 118.31 a 7.67,7.67 0 0 0 12.28,6.14 l 78.87,-59.15 a 7.68,7.68 0 0 0 0,-12.28 L 491.5,269.91 a 7.68,7.68 0 0 0 -12.28,6.14 z"
       style="fill:#4a9fe0"
       id="path36" />
    <path
       d="m 304.21,311.75 a 103.95,103.95 0 0 1 -91.13,-154 l -43.24,-24.28 a 152.62,152.62 0 0 0 -19.22,74.32 c 0,84.69 68.9,153.59 153.59,153.59 a 153.26,153.26 0 0 0 113.11,-49.79 z"
       style="fill:#4a9fe0"
       id="path37" />
    <path
       d="m 351.92,300.11 h 74.93 A 153.32,153.32 0 0 0 440.14,136.3 l -44.23,22.46 a 103.86,103.86 0 0 1 -44,141.35 z"
       style="fill:#4a9fe0"
       id="path38" />
    <path
       d="m 351.92,300.11 h 74.93 A 153.32,153.32 0 0 0 440.14,136.3 l -44.23,22.46 a 103.86,103.86 0 0 1 -44,141.35 z"
       style="opacity:0.6;fill:#ffffff"
       id="path39" />
    <path
       d="m 174.3,311.75 h -62.17 a 5.8,5.8 0 0 0 -5.79,5.8 v 38 a 5.8,5.8 0 0 0 5.79,5.8 h 134.13 a 163,163 0 0 1 -71.96,-49.6 z"
       style="fill:#4a9fe0"
       id="path106" />
    <path
       d="m 174.3,311.75 h -62.17 a 5.8,5.8 0 0 0 -5.79,5.8 v 38 a 5.8,5.8 0 0 0 5.79,5.8 h 134.13 a 163,163 0 0 1 -71.96,-49.6 z"
       style="opacity:0.8;fill:#ffffff"
       id="path107" />
  </g>
  <g
     id="freepik--Plant--inject-195"
     transform="translate(-45.647575)">
    <path
       d="m 113.61,441.92 c 0,0 -4.57,-31.78 -4.19,-50.27 0.38,-18.49 0,-39.28 0,-39.28 h 2.11 c 0,0 -1.43,36.69 0.12,58.83 1.55,22.14 5.64,30.72 5.64,30.72 h -3.66"
       style="fill:#263238"
       id="path108" />
    <path
       d="m 127.24,316.61 a 5.73,5.73 0 0 0 -1.92,-2.84 c -1.34,-0.85 -3.09,-0.5 -4.59,0 -6.36,2.27 -12,14.27 -14.58,20.58 l 8.45,28.79 c 15.26,-14.27 17.9,-33.04 12.64,-46.53 z"
       style="fill:#455a64"
       id="path109" />
    <path
       d="m 124.82,314.94 a 1.8,1.8 0 0 1 -0.12,0.37 c -0.11,0.28 -0.24,0.63 -0.41,1.05 -0.37,0.91 -0.89,2.23 -1.52,3.86 -1.24,3.27 -2.83,7.84 -4.24,13 -1.41,5.16 -2.39,9.89 -3,13.34 -0.3,1.73 -0.53,3.13 -0.67,4.1 q -0.11,0.68 -0.18,1.11 a 2.08,2.08 0 0 1 -0.09,0.39 2.4,2.4 0 0 1 0,-0.4 c 0,-0.29 0.07,-0.67 0.11,-1.12 0.11,-1 0.3,-2.38 0.57,-4.12 a 124.15,124.15 0 0 1 2.89,-13.4 122.85,122.85 0 0 1 4.36,-13 c 0.65,-1.63 1.2,-2.93 1.61,-3.82 q 0.28,-0.63 0.48,-1 a 1.51,1.51 0 0 1 0.21,-0.36 z"
       style="fill:#263238"
       id="path110" />
    <path
       d="m 110.84,370.08 c -7.92,-4.42 -12.59,-12.75 -13,-21.89 -0.3,-6.39 1.64,-12.65 3.84,-18.65 a 2.38,2.38 0 0 1 0.9,-1.35 2.24,2.24 0 0 1 2.16,0.34 c 5.76,3.31 9.24,9.63 11.1,16.05 a 32.52,32.52 0 0 1 1.3,13.21 22,22 0 0 1 -6.27,12.29"
       style="fill:#455a64"
       id="path111" />
    <path
       d="m 110.84,370.08 a 1.93,1.93 0 0 1 0,-0.39 c 0,-0.29 0,-0.65 0,-1.1 0,-1 0,-2.35 -0.12,-4.06 a 110.63,110.63 0 0 0 -1.47,-13.3 c -0.88,-5.15 -1.94,-9.77 -2.73,-13.11 -0.39,-1.63 -0.7,-3 -0.94,-3.95 -0.1,-0.44 -0.18,-0.79 -0.24,-1.08 a 1.74,1.74 0 0 1 -0.06,-0.38 2.3,2.3 0 0 1 0.13,0.37 l 0.3,1.06 c 0.26,0.92 0.62,2.26 1,3.92 0.85,3.33 2,7.94 2.84,13.11 a 99.43,99.43 0 0 1 1.37,13.35 c 0,1.72 0,3.11 0,4.07 0,0.45 0,0.81 -0.05,1.11 -0.05,0.3 -0.01,0.38 -0.03,0.38 z"
       style="fill:#263238"
       id="path112" />
    <g
       style="opacity:0.3"
       id="g113">
      <path
         d="m 110.84,370.08 c -7.92,-4.42 -12.59,-12.75 -13,-21.89 -0.3,-6.39 1.64,-12.65 3.84,-18.65 a 2.38,2.38 0 0 1 0.9,-1.35 2.24,2.24 0 0 1 2.16,0.34 c 5.76,3.31 9.24,9.63 11.1,16.05 a 32.52,32.52 0 0 1 1.3,13.21 22,22 0 0 1 -6.27,12.29"
         id="path113" />
    </g>
    <path
       d="m 119.78,418.7 c 7.8,1.73 14.23,7.29 21.75,10 5,1.79 10.61,2.42 14.58,5.94 -1,-2.43 -3.21,-4.05 -5.41,-5.44 A 96.51,96.51 0 0 0 131,419.68 c -3.54,-1.23 -7.38,-2.27 -11,-1.25"
       style="fill:#455a64"
       id="path114" />
    <path
       d="m 108.51,425.72 c -9.77,-0.16 -20.05,-8.56 -29.78,-9.06 10.18,-3.32 24.75,-0.61 29.78,9.06"
       style="fill:#455a64"
       id="path115" />
    <path
       d="m 112.32,402 a 31.55,31.55 0 0 1 15.62,-1 94.27,94.27 0 0 1 15.24,4.19 c -0.5,-3.43 -3.24,-6 -5.82,-8.28 a 40.67,40.67 0 0 0 -6.12,-4.76 13.58,13.58 0 0 0 -7.34,-2.15 11.51,11.51 0 0 0 -8.1,4.13 13.66,13.66 0 0 0 -3.48,7.88"
       style="fill:#455a64"
       id="path116" />
    <path
       d="m 92.28,391.15 c -6.15,-5.31 -15.46,-4.79 -23.55,-4.61 a 191.72,191.72 0 0 1 36.52,23 c 0.33,-5.78 -5.2,-11.69 -12.97,-18.39 z"
       style="fill:#455a64"
       id="path117" />
    <g
       style="opacity:0.3"
       id="g118">
      <path
         d="m 92.28,391.15 c -6.15,-5.31 -15.46,-4.79 -23.55,-4.61 a 191.72,191.72 0 0 1 36.52,23 c 0.33,-5.78 -5.2,-11.69 -12.97,-18.39 z"
         id="path118" />
    </g>
    <path
       d="m 115.09,383.82 a 67.67,67.67 0 0 1 9.46,-5.55 c 3.23,-1.49 6.25,-3.85 9.38,-5.56 4,-2.22 7.56,-5.3 11.28,-8 3.72,-2.7 7.81,-5.23 12.36,-6 a 24.11,24.11 0 0 0 -11.25,0.65 71.53,71.53 0 0 0 -10.58,4.17 c -4.8,2.18 -9.68,4.42 -13.6,8 -3.92,3.58 -7.46,7 -7,12.34"
       style="fill:#455a64"
       id="path119" />
    <path
       d="m 141.35,425.72 -0.31,-0.14 -0.85,-0.44 c -0.74,-0.4 -1.79,-1 -3.12,-1.66 -0.66,-0.35 -1.39,-0.72 -2.18,-1.09 -0.79,-0.37 -1.63,-0.78 -2.54,-1.18 a 35.82,35.82 0 0 0 -6,-2.11 12.64,12.64 0 0 0 -6.27,-0.16 17.19,17.19 0 0 0 -2.65,0.8 13.36,13.36 0 0 0 -2.14,1.11 13.71,13.71 0 0 0 -2.7,2.25 c -0.56,0.61 -0.84,1 -0.86,1 a 1.26,1.26 0 0 1 0.17,-0.3 9.23,9.23 0 0 1 0.59,-0.76 12.37,12.37 0 0 1 2.66,-2.37 13.35,13.35 0 0 1 2.17,-1.17 16.64,16.64 0 0 1 2.69,-0.85 13,13 0 0 1 6.42,0.13 35.77,35.77 0 0 1 6.06,2.17 c 0.91,0.4 1.76,0.8 2.54,1.21 0.78,0.41 1.51,0.76 2.16,1.13 1.32,0.71 2.36,1.33 3.08,1.76 l 0.82,0.5 c 0.17,0.09 0.27,0.16 0.26,0.17 z"
       style="fill:#263238"
       id="path120" />
    <path
       d="m 101.22,420.83 a 2.16,2.16 0 0 1 0.61,0.18 13.3,13.3 0 0 1 1.6,0.7 19.22,19.22 0 0 1 4.66,3.34 19.65,19.65 0 0 1 3.5,4.58 12.8,12.8 0 0 1 0.75,1.58 2.69,2.69 0 0 1 0.21,0.61 c -0.06,0 -0.43,-0.81 -1.18,-2.06 a 21.92,21.92 0 0 0 -3.52,-4.45 21.63,21.63 0 0 0 -4.54,-3.38 c -1.31,-0.71 -2.11,-1.04 -2.09,-1.1 z"
       style="fill:#263238"
       id="path121" />
    <path
       d="m 79.61,390.65 a 2,2 0 0 1 0.42,0.12 l 1.17,0.43 1.85,0.68 c 0.72,0.27 1.5,0.67 2.39,1.07 a 56.62,56.62 0 0 1 12.71,8.18 62.45,62.45 0 0 1 5.93,5.91 66.44,66.44 0 0 1 4.21,5.38 c 1.12,1.6 2,2.93 2.54,3.85 0.28,0.43 0.5,0.79 0.67,1.06 a 2.14,2.14 0 0 1 0.22,0.38 1.7,1.7 0 0 1 -0.28,-0.34 c -0.17,-0.23 -0.42,-0.57 -0.72,-1 -0.62,-0.9 -1.49,-2.21 -2.63,-3.78 -1.14,-1.57 -2.56,-3.39 -4.25,-5.32 a 66.89,66.89 0 0 0 -5.91,-5.85 59.73,59.73 0 0 0 -12.6,-8.23 c -0.87,-0.4 -1.64,-0.82 -2.36,-1.1 l -1.82,-0.75 -1.15,-0.5 a 2,2 0 0 1 -0.39,-0.19 z"
       style="fill:#263238"
       id="path122" />
    <path
       d="m 127,396.49 a 2.82,2.82 0 0 1 -0.78,-0.1 l -0.9,-0.16 c -0.34,-0.07 -0.75,-0.07 -1.19,-0.12 a 12.2,12.2 0 0 0 -6.72,1.34 12.06,12.06 0 0 0 -3,2.29 14.37,14.37 0 0 0 -2,2.45 20.44,20.44 0 0 0 -1.34,2.59 3.16,3.16 0 0 1 0.2,-0.77 11.54,11.54 0 0 1 0.93,-1.95 13.24,13.24 0 0 1 2,-2.55 11.86,11.86 0 0 1 10,-3.65 11.38,11.38 0 0 1 1.21,0.17 l 0.89,0.23 a 3.79,3.79 0 0 1 0.7,0.23 z"
       style="fill:#263238"
       id="path123" />
    <path
       d="m 136.8,365.72 a 2.25,2.25 0 0 1 -0.37,0.23 l -1.09,0.6 c -1,0.52 -2.31,1.28 -4,2.26 -1.69,0.98 -3.59,2.23 -5.66,3.72 a 48.45,48.45 0 0 0 -6.32,5.35 16.39,16.39 0 0 0 -2.58,3.38 c -0.64,1.24 -1.25,2.44 -1.81,3.6 a 66.92,66.92 0 0 0 -2.72,6.24 40.21,40.21 0 0 0 -1.32,4.39 c -0.25,1.06 -0.34,1.66 -0.37,1.65 a 2.09,2.09 0 0 1 0,-0.44 c 0,-0.28 0.09,-0.7 0.2,-1.23 a 33.07,33.07 0 0 1 1.22,-4.46 60.77,60.77 0 0 1 2.66,-6.3 c 0.55,-1.16 1.16,-2.36 1.8,-3.61 a 16.07,16.07 0 0 1 2.63,-3.46 45.53,45.53 0 0 1 6.39,-5.37 c 2.08,-1.49 4.05,-2.7 5.72,-3.67 1.67,-0.97 3.06,-1.69 4,-2.17 l 1.12,-0.54 a 1.91,1.91 0 0 1 0.5,-0.17 z"
       style="fill:#263238"
       id="path124" />
    <path
       d="m 109.41,395.61 a 4.68,4.68 0 0 1 -0.19,-0.84 c -0.12,-0.61 -0.26,-1.37 -0.43,-2.28 a 59,59 0 0 0 -4.64,-14.5 c -0.38,-0.85 -0.7,-1.55 -1,-2.12 a 3.44,3.44 0 0 1 -0.31,-0.79 4.4,4.4 0 0 1 0.43,0.73 c 0.26,0.48 0.62,1.19 1.05,2.07 a 49.11,49.11 0 0 1 4.68,14.57 c 0.15,1 0.26,1.76 0.32,2.3 a 4.56,4.56 0 0 1 0.09,0.86 z"
       style="fill:#263238"
       id="path125" />
    <path
       d="m 108.7,373.15 a 26.92,26.92 0 0 0 -3.17,-10.66 34.87,34.87 0 0 0 -23.6,-17.78 q 10.92,16.46 21.85,32.9 l 2.82,5.88 a 17,17 0 0 0 2.1,-10.34 z"
       style="fill:#455a64"
       id="path126" />
    <rect
       x="89.239998"
       y="437.98999"
       width="50.790001"
       height="9.1000004"
       style="fill:#4a9fe0"
       id="rect126" />
    <polygon
       points="93.04,445.28 97.36,473.51 131.08,473.51 136.24,445.28 "
       style="fill:#4a9fe0"
       id="polygon126" />
    <path
       d="m 140,447.09 c 0,0.1 -11.46,0.18 -25.59,0.18 -14.13,0 -25.59,-0.08 -25.59,-0.18 0,-0.1 11.46,-0.18 25.59,-0.18 14.13,0 25.59,0.09 25.59,0.18 z"
       style="fill:#263238"
       id="path127" />
  </g>
</svg>
