<?xml version="1.0" encoding="UTF-8" standalone="no"?>
<!-- Created with Inkscape (http://www.inkscape.org/) -->
<svg xmlns:dc="http://purl.org/dc/elements/1.1/" xmlns:cc="http://creativecommons.org/ns#" xmlns:rdf="http://www.w3.org/1999/02/22-rdf-syntax-ns#" xmlns:svg="http://www.w3.org/2000/svg" xmlns="http://www.w3.org/2000/svg" xmlns:sodipodi="http://sodipodi.sourceforge.net/DTD/sodipodi-0.dtd" xmlns:inkscape="http://www.inkscape.org/namespaces/inkscape" version="1.1" id="svg1079" xml:space="preserve" width="1500" height="300" viewBox="0 0 1500 300" sodipodi:docname="logo-orange-blanc.svg" inkscape:version="0.92.1 r15371">
	<metadata id="metadata1085">
		<rdf:RDF>
			<cc:Work rdf:about="">
				<dc:format>image/svg+xml</dc:format>
				<dc:type rdf:resource="http://purl.org/dc/dcmitype/StillImage" />
				<dc:title/>
			</cc:Work>
		</rdf:RDF>
	</metadata>
	<defs id="defs1083">
		<clipPath clipPathUnits="userSpaceOnUse" id="clipPath1095">
			<path d="M 0,4200 H 4064 V 0 H 0 Z" id="path1093" inkscape:connector-curvature="0" />
		</clipPath>
		<linearGradient x1="0" y1="0" x2="1" y2="0" gradientUnits="userSpaceOnUse" gradientTransform="matrix(0,591.89526,591.89526,0,1432.4454,3207.6018)" spreadMethod="pad" id="linearGradient1193">
			<stop style="stop-opacity:1;stop-color:#38ae9c" offset="0" id="stop1189" />
			<stop style="stop-opacity:1;stop-color:#3bba69" offset="1" id="stop1191" />
		</linearGradient>
		<linearGradient x1="0" y1="0" x2="1" y2="0" gradientUnits="userSpaceOnUse" gradientTransform="matrix(1051.687,-1051.687,-1051.687,-1051.687,907.80048,3350.3708)" spreadMethod="pad" id="linearGradient1215">
			<stop style="stop-opacity:1;stop-color:#f57f24" offset="0" id="stop1209" />
			<stop style="stop-opacity:1;stop-color:#f57f24" offset="0.09579182" id="stop1211" />
			<stop style="stop-opacity:1;stop-color:#f2542e" offset="1" id="stop1213" />
		</linearGradient>
		<clipPath clipPathUnits="userSpaceOnUse" id="clipPath1225">
			<path d="M 0,4200 H 4064 V 0 H 0 Z" id="path1223" inkscape:connector-curvature="0" />
		</clipPath>
		<linearGradient x1="0" y1="0" x2="1" y2="0" gradientUnits="userSpaceOnUse" gradientTransform="matrix(1051.9015,-1051.9015,-1051.9015,-1051.9015,907.69324,2640.2271)" spreadMethod="pad" id="linearGradient1267">
			<stop style="stop-opacity:1;stop-color:#2f2d2e" offset="0" id="stop1263" />
			<stop style="stop-opacity:1;stop-color:#1b1919" offset="1" id="stop1265" />
		</linearGradient>
		<clipPath clipPathUnits="userSpaceOnUse" id="clipPath1277">
			<path d="M 0,4200 H 4064 V 0 H 0 Z" id="path1275" inkscape:connector-curvature="0" />
		</clipPath>
		<linearGradient x1="0" y1="0" x2="1" y2="0" gradientUnits="userSpaceOnUse" gradientTransform="matrix(1052.8478,-1052.8478,-1052.8478,-1052.8478,897.79517,1871.076)" spreadMethod="pad" id="linearGradient1321">
			<stop style="stop-opacity:1;stop-color:#2f2d2e" offset="0" id="stop1315" />
			<stop style="stop-opacity:1;stop-color:#1b1919" offset="0.38448821" id="stop1317" />
			<stop style="stop-opacity:1;stop-color:#1b1919" offset="1" id="stop1319" />
		</linearGradient>
		<linearGradient x1="0" y1="0" x2="1" y2="0" gradientUnits="userSpaceOnUse" gradientTransform="matrix(202.90596,-202.90596,-202.90596,-202.90596,881.44348,1444.1176)" spreadMethod="pad" id="linearGradient1341">
			<stop style="stop-opacity:1;stop-color:#38ae9c" offset="0" id="stop1337" />
			<stop style="stop-opacity:1;stop-color:#3bba69" offset="1" id="stop1339" />
		</linearGradient>
		<clipPath clipPathUnits="userSpaceOnUse" id="clipPath1351">
			<path d="M 0,4200 H 4064 V 0 H 0 Z" id="path1349" inkscape:connector-curvature="0" />
		</clipPath>
		<linearGradient x1="0" y1="0" x2="1" y2="0" gradientUnits="userSpaceOnUse" gradientTransform="matrix(1052.3479,-1052.3479,-1052.3479,-1052.3479,917.39502,1153.389)" spreadMethod="pad" id="linearGradient1391">
			<stop style="stop-opacity:1;stop-color:#2f2d2e" offset="0" id="stop1385" />
			<stop style="stop-opacity:1;stop-color:#1b1919" offset="0.38448821" id="stop1387" />
			<stop style="stop-opacity:1;stop-color:#1b1919" offset="1" id="stop1389" />
		</linearGradient>
		<linearGradient x1="0" y1="0" x2="1" y2="0" gradientUnits="userSpaceOnUse" gradientTransform="matrix(202.90596,-202.90596,-202.90596,-202.90596,901.29334,726.68054)" spreadMethod="pad" id="linearGradient1413">
			<stop style="stop-opacity:1;stop-color:#f57f24" offset="0" id="stop1407" />
			<stop style="stop-opacity:1;stop-color:#f57f24" offset="0.09579182" id="stop1409" />
			<stop style="stop-opacity:1;stop-color:#f2542e" offset="1" id="stop1411" />
		</linearGradient>
		<clipPath clipPathUnits="userSpaceOnUse" id="clipPath1423">
			<path d="M 0,4200 H 4064 V 0 H 0 Z" id="path1421" inkscape:connector-curvature="0" />
		</clipPath>
		<linearGradient x1="0" y1="0" x2="1" y2="0" gradientUnits="userSpaceOnUse" gradientTransform="matrix(218.67981,0,0,-218.67981,2467.9319,2760.6521)" spreadMethod="pad" id="linearGradient1567">
			<stop style="stop-opacity:1;stop-color:#f57f24" offset="0" id="stop1561" />
			<stop style="stop-opacity:1;stop-color:#f57f24" offset="0.09579182" id="stop1563" />
			<stop style="stop-opacity:1;stop-color:#f2542e" offset="1" id="stop1565" />
		</linearGradient>
		<clipPath clipPathUnits="userSpaceOnUse" id="clipPath1577">
			<path d="M 0,4200 H 4064 V 0 H 0 Z" id="path1575" inkscape:connector-curvature="0" />
		</clipPath>
		<linearGradient x1="0" y1="0" x2="1" y2="0" gradientUnits="userSpaceOnUse" gradientTransform="matrix(218.67981,0,0,-218.67981,2467.5259,2388.6338)" spreadMethod="pad" id="linearGradient1631">
			<stop style="stop-opacity:1;stop-color:#38ae9c" offset="0" id="stop1627" />
			<stop style="stop-opacity:1;stop-color:#3bba69" offset="1" id="stop1629" />
		</linearGradient>
		<clipPath clipPathUnits="userSpaceOnUse" id="clipPath1641">
			<path d="M 0,4200 H 4064 V 0 H 0 Z" id="path1639" inkscape:connector-curvature="0" />
		</clipPath>
		<linearGradient x1="0" y1="0" x2="1" y2="0" gradientUnits="userSpaceOnUse" gradientTransform="matrix(218.67981,0,0,-218.67981,2469.7134,1763.8214)" spreadMethod="pad" id="linearGradient1695">
			<stop style="stop-opacity:1;stop-color:#38ae9c" offset="0" id="stop1691" />
			<stop style="stop-opacity:1;stop-color:#3bba69" offset="1" id="stop1693" />
		</linearGradient>
		<clipPath clipPathUnits="userSpaceOnUse" id="clipPath1705">
			<path d="M 0,4200 H 4064 V 0 H 0 Z" id="path1703" inkscape:connector-curvature="0" />
		</clipPath>
		<linearGradient x1="0" y1="0" x2="1" y2="0" gradientUnits="userSpaceOnUse" gradientTransform="matrix(218.67981,0,0,-218.67981,2493.5713,2059.5225)" spreadMethod="pad" id="linearGradient1761">
			<stop style="stop-opacity:1;stop-color:#f57f24" offset="0" id="stop1755" />
			<stop style="stop-opacity:1;stop-color:#f57f24" offset="0.09579182" id="stop1757" />
			<stop style="stop-opacity:1;stop-color:#f2542e" offset="1" id="stop1759" />
		</linearGradient>
		<clipPath clipPathUnits="userSpaceOnUse" id="clipPath1771">
			<path d="M 0,4200 H 4064 V 0 H 0 Z" id="path1769" inkscape:connector-curvature="0" />
		</clipPath>
	</defs>
	<sodipodi:namedview pagecolor="#ffffff" bordercolor="#666666" borderopacity="1" objecttolerance="10" gridtolerance="10" guidetolerance="10" inkscape:pageopacity="0" inkscape:pageshadow="2" inkscape:window-width="3840" inkscape:window-height="2004" id="namedview1081" showgrid="false" inkscape:snap-text-baseline="true" inkscape:zoom="0.33714286" inkscape:cx="1578.3913" inkscape:cy="1238.7975" inkscape:window-x="-16" inkscape:window-y="-16" inkscape:window-maximized="1" inkscape:current-layer="g1087" />
	<g id="g1087" inkscape:groupmode="layer" inkscape:label="logo-orange-blanc" transform="matrix(1.3333333,0,0,-1.3333333,0,300)">
		<g id="g1549" transform="translate(-2457.432,-2647.8658)">
			<g id="g1551">
				<g id="g1557">
					<g id="g1559">
						<path d="m 2626.192,2857.848 c -2.347,0 -4.454,-2.107 -4.454,-4.446 v 0 c 0,-2.345 2.107,-4.452 4.454,-4.452 v 0 h 49.65 v -176.596 h -49.65 c -2.347,0 -4.454,-2.108 -4.454,-4.447 v 0 c 0,-2.344 2.107,-4.451 4.454,-4.451 v 0 h 54.334 c 3.277,0 6.086,2.813 6.086,6.09 v 0 182.212 c 0,3.282 -2.809,6.09 -6.086,6.09 v 0 z m -152.17,0 c -3.276,0 -6.09,-2.808 -6.09,-6.09 v 0 -182.212 c 0,-3.277 2.814,-6.09 6.09,-6.09 v 0 h 54.336 c 2.345,0 4.452,2.107 4.452,4.451 v 0 c 0,2.339 -2.107,4.447 -4.452,4.447 v 0 h -49.652 v 176.596 h 49.652 c 2.345,0 4.452,2.107 4.452,4.452 v 0 c 0,2.339 -2.107,4.446 -4.452,4.446 v 0 z m 48.118,-97.083 c 0,-32.318 26.232,-57.613 59.019,-57.613 v 0 c 13.589,0 26.471,4.684 36.07,12.182 v 0 c 2.814,2.107 3.282,5.616 1.175,8.192 v 0 c -1.876,2.113 -5.152,2.814 -7.728,0.938 v 0 c -8.199,-6.322 -18.504,-10.068 -29.517,-10.068 v 0 c -26.695,0 -47.775,20.611 -47.775,46.369 v 0 c 0,25.295 21.08,46.143 47.775,46.143 v 0 c 11.013,0 21.318,-3.751 29.517,-10.305 v 0 c 2.576,-1.876 5.852,-1.169 7.728,0.938 v 0 c 2.107,2.576 1.639,6.084 -0.706,7.729 v 0 c -10.068,7.961 -22.95,12.645 -36.539,12.645 v 0 c -32.787,0 -59.019,-25.295 -59.019,-57.15" style="fill:url(#linearGradient1567);stroke:none" id="path1569" inkscape:connector-curvature="0" />
					</g>
				</g>
			</g>
		</g>
		<g id="g1571" class="logo-text" transform="translate(-2457.432,-2647.8658)">
			<g id="g1573" clip-path="url(#clipPath1577)">
				<g id="g1579" transform="translate(2735.2861,2812.061)">
					<path d="m 0,0 c 0,3.277 2.576,5.622 5.854,5.622 2.813,0 5.389,-2.345 5.389,-5.622 v -25.295 c 0.47,0.938 0.939,1.87 1.639,2.808 8.667,13.583 23.888,28.109 45.906,28.109 3.045,0 5.622,-2.345 5.622,-5.622 0,-3.045 -2.577,-5.622 -5.622,-5.622 -14.989,0 -25.295,-8.429 -33.256,-18.735 -7.729,-10.306 -12.181,-22.018 -13.819,-26.702 -0.47,-0.938 -0.47,-1.407 -0.47,-1.876 v -50.352 c 0,-3.277 -2.576,-5.622 -5.389,-5.622 -3.278,0 -5.854,2.345 -5.854,5.622 z" id="path1581" inkscape:connector-curvature="0" />
				</g>
				<g id="g1583" transform="translate(2917.2598,2760.5332)">
					<path d="M 0,0 C 0,25.764 -19.441,46.375 -43.098,46.375 -66.517,46.375 -86.19,25.764 -86.19,0 c 0,-25.764 19.673,-46.138 43.092,-46.138 C -19.441,-46.138 0,-25.764 0,0 M 11.238,51.76 V -51.759 c 0,-3.046 -2.576,-5.622 -5.622,-5.622 -3.039,0 -5.616,2.576 -5.616,5.622 v 17.096 c -9.836,-13.582 -25.532,-22.718 -43.098,-22.718 -30.21,0 -54.336,25.995 -54.336,57.381 0,31.386 24.126,57.381 54.336,57.381 17.566,0 33.262,-8.899 43.098,-22.481 v 16.86 c 0,3.282 2.577,5.621 5.616,5.621 3.046,0 5.622,-2.339 5.622,-5.621" id="path1585" inkscape:connector-curvature="0" />
				</g>
				<g id="g1587" transform="translate(3027.7842,2861.0068)">
					<path d="m 0,0 c 0,-3.04 -2.576,-5.616 -5.622,-5.616 -7.961,0 -12.176,-1.644 -14.521,-4.452 -2.576,-2.814 -4.683,-8.43 -4.683,-18.973 v -12.175 h 16.159 c 3.282,0 5.858,-2.577 5.858,-5.622 0,-3.283 -2.576,-5.859 -5.858,-5.859 h -16.159 v -99.773 c 0,-3.04 -2.576,-5.616 -5.622,-5.616 -3.277,0 -5.854,2.576 -5.854,5.616 v 99.773 h -15.226 c -3.045,0 -5.621,2.576 -5.621,5.859 0,3.045 2.576,5.622 5.621,5.622 h 15.226 v 12.175 c 0.233,11.712 2.108,20.38 7.492,26.702 5.623,6.091 14.052,8.198 23.188,8.198 C -2.576,5.859 0,3.283 0,0" id="path1589" inkscape:connector-curvature="0" />
				</g>
				<g id="g1591" transform="translate(3102.0186,2812.293)">
					<path d="M 0,0 C 0,-2.808 -2.813,-5.622 -5.622,-5.622 H -20.38 V -89.23 c 0,-5.622 5.622,-8.436 8.436,-8.436 2.808,0 5.853,-3.045 5.853,-5.853 0,-2.814 -3.045,-5.622 -5.853,-5.622 -11.481,0 -20.142,8.43 -20.142,19.911 v 83.608 h -14.289 c -5.622,0 -5.622,2.814 -5.622,5.622 0,2.813 0,5.622 5.622,5.622 h 14.289 v 42.623 c 0,2.814 2.808,5.622 5.615,5.622 3.046,0 6.091,-2.808 6.091,-5.622 V 5.622 H -5.622 C -2.813,5.622 0,2.813 0,0" id="path1593" inkscape:connector-curvature="0" />
				</g>
				<g id="g1595" transform="translate(3146.0371,2812.5303)">
					<path d="m 0,0 c 0,3.045 2.576,5.384 5.384,5.384 3.277,0 5.853,-2.339 5.853,-5.384 v -62.303 c 0,-19.673 15.697,-35.363 35.132,-35.363 19.673,0 35.369,15.69 35.601,35.363 V 0 c 0,0.932 0.237,2.107 0.937,2.808 0,0.237 0.232,0.469 0.232,0.7 0.237,0 0.237,0.238 0.468,0.238 0.47,0.7 1.408,1.169 2.108,1.407 h 0.47 c 0.237,0 0.468,0.231 0.706,0.231 h 0.7 0.701 c 0.937,-0.231 1.876,-0.7 2.813,-1.169 0.469,-0.469 1.17,-1.17 1.408,-1.876 0.463,-0.701 0.7,-1.639 0.7,-2.339 v -62.303 -2.107 -35.832 c 0,-29.979 -24.358,-53.873 -54.573,-53.873 -8.43,0 -16.391,2.114 -23.651,5.39 -2.576,1.639 -3.752,4.916 -2.344,7.492 1.406,2.814 4.452,3.515 7.259,2.814 5.622,-2.814 12.182,-4.452 18.736,-4.452 23.893,0 43.098,18.973 43.33,42.629 v 7.492 C 73.303,-102.587 60.658,-109.146 46.369,-109.146 20.843,-108.909 0,-88.066 0,-62.303 Z" id="path1597" inkscape:connector-curvature="0" />
				</g>
				<g id="g1599" transform="translate(3300.6309,2719.8677)">
					<path d="m 0,0 c 1.937,1.934 4.273,2.902 7.017,2.902 2.742,0 5.082,-0.968 7.015,-2.902 1.937,-1.937 2.905,-4.276 2.905,-7.017 0,-2.744 -0.968,-5.082 -2.905,-7.016 -1.933,-1.936 -4.273,-2.902 -7.015,-2.902 -2.744,0 -5.08,0.966 -7.017,2.902 -1.935,1.934 -2.902,4.272 -2.902,7.016 0,2.741 0.967,5.08 2.902,7.017" id="path1601" inkscape:connector-curvature="0" />
				</g>
				<g id="g1603" transform="translate(3434.459,2814.0366)">
					<path d="m 0,0 c 3.007,0 5.443,-2.437 5.443,-5.443 v -8.589 h 0.485 c 2.578,5.16 6.409,9.193 11.491,12.095 5.08,2.905 10.604,4.355 16.573,4.355 11.856,0 20.89,-4.231 27.104,-12.694 2.179,-2.97 6.517,-3.023 8.782,-0.118 2.39,3.064 5.266,5.602 8.631,7.612 5.806,3.466 12.339,5.2 19.595,5.2 13.225,0 22.297,-3.831 27.22,-11.491 4.918,-7.662 7.378,-18.508 7.378,-32.54 v -64.719 c 0,-3.006 -2.437,-5.443 -5.444,-5.443 -3.006,0 -5.444,2.437 -5.444,5.443 v 66.171 c 0,10.32 -1.572,18.304 -4.717,23.952 -3.144,5.644 -9.556,8.468 -19.234,8.468 -19.197,0 -28.792,-13.229 -28.792,-39.679 v -58.912 c 0,-3.006 -2.436,-5.443 -5.443,-5.443 -3.006,0 -5.443,2.437 -5.443,5.443 v 63.51 c 0,10.643 -1.694,19.149 -5.081,25.524 -3.385,6.37 -10.001,9.557 -19.838,9.557 -18.55,0 -27.823,-14.197 -27.823,-42.582 v -56.009 c 0,-3.006 -2.436,-5.443 -5.443,-5.443 h -0.002 c -3.007,0 -5.443,2.437 -5.443,5.443 V -5.443 c 0,3.006 2.436,5.443 5.443,5.443 z" id="path1605" inkscape:connector-curvature="0" />
				</g>
				<g id="g1607" transform="translate(3375.5391,2860.7607)">
					<path d="m 0,0 c 1.68,1.494 3.641,2.304 5.888,2.435 3.05,0.176 6.082,-1.074 8.113,-3.355 1.497,-1.68 2.311,-3.645 2.441,-5.892 0.178,-3.044 -1.069,-6.069 -3.342,-8.102 -1.688,-1.51 -3.664,-2.326 -5.93,-2.453 -3.045,-0.17 -6.068,1.082 -8.095,3.361 -1.492,1.679 -2.304,3.639 -2.434,5.887 C -3.536,-5.067 -2.284,-2.032 0,0" id="path1609" inkscape:connector-curvature="0" />
				</g>
				<g id="g1611" transform="translate(3381.541,2702.1001)">
					<path d="m 0,0 h -0.215 c -3.039,0 -5.502,2.463 -5.502,5.502 v 103.512 c 0,3.038 2.463,5.502 5.502,5.502 H 0 c 3.039,0 5.503,-2.464 5.503,-5.502 V 5.502 C 5.503,2.463 3.039,0 0,0" id="path1613" inkscape:connector-curvature="0" />
				</g>
			</g>
		</g>
	</g>
</svg>