<?xml version="1.0" encoding="UTF-8" standalone="no"?>
<svg
   viewBox="0 0 221 415"
   version="1.1"
   id="svg88"
   sodipodi:docname="mobile.svg"
   inkscape:export-filename="mobile.svg"
   inkscape:export-xdpi="92.736"
   inkscape:export-ydpi="92.736"
   width="221"
   height="415"
   inkscape:version="1.3.2 (091e20e, 2023-11-25, custom)"
   xmlns:inkscape="http://www.inkscape.org/namespaces/inkscape"
   xmlns:sodipodi="http://sodipodi.sourceforge.net/DTD/sodipodi-0.dtd"
   xmlns="http://www.w3.org/2000/svg"
   xmlns:svg="http://www.w3.org/2000/svg">
  <defs
     id="defs88" />
  <sodipodi:namedview
     id="namedview88"
     pagecolor="#ffffff"
     bordercolor="#000000"
     borderopacity="0.25"
     inkscape:showpageshadow="2"
     inkscape:pageopacity="0.0"
     inkscape:pagecheckerboard="0"
     inkscape:deskcolor="#d1d1d1"
     inkscape:zoom="2"
     inkscape:cx="6.75"
     inkscape:cy="97.25"
     inkscape:window-width="1920"
     inkscape:window-height="1017"
     inkscape:window-x="-8"
     inkscape:window-y="-8"
     inkscape:window-maximized="1"
     inkscape:current-layer="freepik--Device--inject-44">
    <inkscape:page
       x="0"
       y="0"
       width="221"
       height="415"
       id="page88"
       margin="0 0 0 0"
       bleed="0" />
  </sodipodi:namedview>
  <g
     id="freepik--Device--inject-44"
     transform="translate(-105,-63)">
    <path
       d="m 296.28,470.77 -156,0.08 A 22.75,22.75 0 0 1 117.52,448.12 L 117.34,96.71 a 25.92,25.92 0 0 1 25.91,-25.94 l 153.12,-0.08 a 23,23 0 0 1 23,23 l 0.19,353.82 a 23.28,23.28 0 0 1 -23.28,23.26 z"
       style="fill:#455a64"
       id="path27" />
    <path
       d="M 120.69,440 120.51,101.61 A 27.66,27.66 0 0 1 148.16,74 L 288.5,73.92 a 27.66,27.66 0 0 1 27.68,27.65 l 0.18,338.39 a 27.66,27.66 0 0 1 -27.65,27.68 l -140.34,0.08 A 27.67,27.67 0 0 1 120.69,440 Z"
       style="fill:#263238"
       id="path28" />
    <path
       d="m 203.83,86.53 a 2.25,2.25 0 0 1 0,-4.5 h 28.89 a 2.25,2.25 0 1 1 0,4.49 z"
       style="fill:#455a64"
       id="path29" />
    <path
       d="m 188.34,86.54 a 2.25,2.25 0 1 1 2.24,-2.25 2.25,2.25 0 0 1 -2.24,2.25 z"
       style="fill:#455a64"
       id="path30" />
    <path
       d="m 196.61,86.53 a 2.25,2.25 0 1 1 2.24,-2.25 2.25,2.25 0 0 1 -2.24,2.25 z"
       style="fill:#455a64"
       id="path31" />
    <path
       d="m 248.34,86.5 a 2.25,2.25 0 1 1 2.25,-2.24 2.24,2.24 0 0 1 -2.25,2.24 z"
       style="fill:#455a64"
       id="path32" />
    <path
       d="m 240.07,86.51 a 2.25,2.25 0 1 1 2.25,-2.25 2.24,2.24 0 0 1 -2.25,2.25 z"
       style="fill:#455a64"
       id="path33" />
    <path
       d="m 290,78.51 h -27.2 a 5.94,5.94 0 0 0 -5.7,4.26 l -2.22,7.62 a 6.62,6.62 0 0 1 -6.37,4.77 h -60.26 a 6.65,6.65 0 0 1 -6.38,-4.76 l -2.23,-7.62 a 5.92,5.92 0 0 0 -5.7,-4.25 h -27.22 a 21.61,21.61 0 0 0 -21.65,21.56 l 0.18,340.62 a 21.6,21.6 0 0 0 21.67,21.53 l 143.25,-0.07 a 21.61,21.61 0 0 0 21.65,-21.56 L 311.64,100 A 21.6,21.6 0 0 0 290,78.51 Z"
       style="fill:#fafafa"
       id="path34" />
    <path
       d="m 319.39,157.63 v 0 a 1.34,1.34 0 0 1 1.33,1.33 v 43.33 a 1.33,1.33 0 0 1 -1.32,1.33 v 0 z"
       style="fill:#455a64"
       id="path35" />
    <path
       d="m 117.37,186.08 v 0 a 1.37,1.37 0 0 0 -1.37,1.37 v 26.37 a 1.38,1.38 0 0 0 1.38,1.37 v 0 z"
       style="fill:#455a64"
       id="path36" />
    <path
       d="m 117.35,148 v 0 a 1.37,1.37 0 0 0 -1.37,1.38 v 26.36 a 1.39,1.39 0 0 0 1.38,1.38 v 0 z"
       style="fill:#455a64"
       id="path37" />
    <path
       d="m 117.34,119.49 v 0 a 1.19,1.19 0 0 0 -1.19,1.19 v 11.17 a 1.18,1.18 0 0 0 1.19,1.18 v 0 z"
       style="fill:#455a64"
       id="path38" />
    <rect
       x="266.32999"
       y="89.599998"
       width="1.39"
       height="1.95"
       style="fill:#000000"
       id="rect38" />
    <rect
       x="268.59"
       y="88.730003"
       width="1.39"
       height="2.8099999"
       style="fill:#000000"
       id="rect39" />
    <rect
       x="270.85001"
       y="88.080002"
       width="1.39"
       height="3.46"
       style="fill:#000000"
       id="rect40" />
    <rect
       x="273.10999"
       y="86.82"
       width="1.39"
       height="4.7199998"
       style="fill:#000000"
       id="rect41" />
    <path
       d="m 295,91.63 h -7 a 0.49,0.49 0 0 1 -0.5,-0.49 v -3.47 a 0.5,0.5 0 0 1 0.49,-0.5 h 7 a 0.14,0.14 0 0 1 0.13,0.13 v 1.14 h 0.75 a 0.12,0.12 0 0 1 0.12,0.13 v 1.66 a 0.13,0.13 0 0 1 -0.13,0.13 h -0.75 V 91.5 A 0.12,0.12 0 0 1 295,91.63 Z m -0.13,-4.21 H 288 a 0.24,0.24 0 0 0 -0.24,0.24 v 3.47 a 0.24,0.24 0 0 0 0.24,0.24 h 6.84 v -1.14 a 0.12,0.12 0 0 1 0.12,-0.12 h 0.75 V 88.69 H 295 a 0.12,0.12 0 0 1 -0.12,-0.12 z"
       style="fill:#000000"
       id="path41" />
    <polygon
       points="294.29,90.81 288.34,90.81 288.34,88 294.29,87.99 294.29,89.26 294.29,89.54 "
       style="fill:#000000"
       id="polygon41" />
    <path
       d="m 281.14,91.37 a 0.51,0.51 0 1 0 -0.51,0.51 0.51,0.51 0 0 0 0.51,-0.51 z"
       style="fill:#000000"
       id="path42" />
    <path
       d="m 278.89,90.15 0.65,0.64 a 1.55,1.55 0 0 1 2.18,0 l 0.65,-0.65 a 2.48,2.48 0 0 0 -1.74,-0.72 2.45,2.45 0 0 0 -1.74,0.73 z"
       style="fill:#000000"
       id="path43" />
    <path
       d="m 280.63,88 a 3.92,3.92 0 0 0 -2.76,1.14 l 0.65,0.65 a 3,3 0 0 1 4.22,0 l 0.65,-0.65 A 3.88,3.88 0 0 0 280.63,88 Z"
       style="fill:#000000"
       id="path44" />
    <path
       d="m 276.81,88.07 0.65,0.65 a 4.43,4.43 0 0 1 3.17,-1.32 4.5,4.5 0 0 1 3.17,1.31 l 0.65,-0.65 a 5.4,5.4 0 0 0 -7.64,0 z"
       style="fill:#000000"
       id="path45" />
    <path
       d="m 161.35,173.7 a 12.89,12.89 0 1 1 -12.78,-13 12.89,12.89 0 0 1 12.78,13 z"
       style="fill:#4a9fe0"
       id="path46" />
    <path
       d="m 225.32,163.77 c 0,0.14 -12,0.16 -26.7,0 -14.7,-0.16 -26.71,-0.33 -26.71,-0.48 0,-0.15 12,-0.16 26.71,0 14.71,0.16 26.71,0.34 26.7,0.48 z"
       style="fill:#263238"
       id="path47" />
    <path
       d="m 269.29,176 c 0,0.14 -21.8,0.08 -48.69,-0.14 -26.89,-0.22 -48.69,-0.52 -48.69,-0.66 0,-0.14 21.8,-0.08 48.7,0.14 26.9,0.22 48.68,0.51 48.68,0.66 z"
       style="fill:#e0e0e0"
       id="path48" />
    <path
       d="m 269.32,185.61 c 0,0.14 -21.8,0.08 -48.69,-0.14 -26.89,-0.22 -48.72,-0.47 -48.72,-0.66 0,-0.19 21.79,-0.08 48.69,0.14 26.9,0.22 48.72,0.51 48.72,0.66 z"
       style="fill:#e0e0e0"
       id="path49" />
    <path
       d="m 299.075,161.92 c 0,0.15 -4.72,0.22 -10.53,0.18 -5.81,-0.04 -10.52,-0.21 -10.52,-0.35 0,-0.14 4.71,-0.22 10.53,-0.17 5.82,0.05 10.52,0.2 10.52,0.34 z"
       style="fill:#263238"
       id="path50" />
    <path
       d="m 289.48297,175.33 0.87,1.8 a 1.05,1.05 0 0 0 0.78,0.59 l 2,0.3 a 1,1 0 0 1 0.57,1.79 l -1.45,1.39 a 1.07,1.07 0 0 0 -0.31,0.93 l 0.33,2 a 1.06,1.06 0 0 1 -1.54,1.1 l -1.76,-0.95 a 1.06,1.06 0 0 0 -1,0 l -1.78,0.92 a 1,1 0 0 1 -1.51,-1.12 l 0.35,-2 a 1,1 0 0 0 -0.29,-0.93 l -1.42,-1.41 a 1.05,1.05 0 0 1 0.6,-1.79 l 2,-0.27 a 1,1 0 0 0 0.79,-0.57 l 0.9,-1.78 a 1.06,1.06 0 0 1 1.87,0 z"
       style="fill:#4a9fe0"
       id="path51" />
    <path
       d="m 242.16,163.19 a 2.42,2.42 0 1 1 -2.4,-2.44 2.42,2.42 0 0 1 2.4,2.44 z"
       style="fill:#4a9fe0"
       id="path52" />
    <path
       d="m 310.9,139.84 c 0,0.14 -41.65,-0.08 -93,-0.5 -51.35,-0.42 -93,-0.88 -93,-1 0,-0.12 41.64,0.08 93,0.5 51.36,0.42 93.01,0.86 93,1 z"
       style="fill:#e0e0e0"
       id="path53" />
    <path
       d="m 310.36,206.46 c 0,0.15 -41.66,-0.08 -93,-0.5 -51.34,-0.42 -93,-0.88 -93,-1 0,-0.12 41.65,0.08 93,0.5 51.35,0.42 93,0.86 93,1 z"
       style="fill:#e0e0e0"
       id="path54" />
    <circle
       cx="-111.82903"
       cy="321.78384"
       r="12.89"
       transform="rotate(-45)"
       style="fill:#4a9fe0"
       id="circle54" />
    <path
       d="m 225.32,296.79 c 0,0.14 -11.95,0.16 -26.7,0 -14.75,-0.16 -26.71,-0.33 -26.71,-0.48 0,-0.15 12,-0.16 26.71,0 14.71,0.16 26.71,0.34 26.7,0.48 z"
       style="fill:#263238"
       id="path55" />
    <path
       d="m 269.29,309 c 0,0.14 -21.8,0.08 -48.69,-0.14 -26.89,-0.22 -48.69,-0.52 -48.69,-0.66 0,-0.14 21.8,-0.08 48.7,0.14 26.9,0.22 48.68,0.53 48.68,0.66 z"
       style="fill:#e0e0e0"
       id="path56" />
    <path
       d="m 269.28,318.63 c 0,0.14 -21.8,0.08 -48.69,-0.14 -26.89,-0.22 -48.69,-0.52 -48.68,-0.66 0.01,-0.14 21.79,-0.08 48.69,0.14 26.9,0.22 48.68,0.51 48.68,0.66 z"
       style="fill:#e0e0e0"
       id="path57" />
    <path
       d="m 299.075,294.94 c 0,0.15 -4.71,0.22 -10.53,0.18 -5.82,-0.04 -10.52,-0.21 -10.52,-0.35 0,-0.14 4.71,-0.22 10.53,-0.17 5.82,0.05 10.52,0.2 10.52,0.34 z"
       style="fill:#263238"
       id="path58" />
    <path
       d="m 289.48297,308.35 0.87,1.8 a 1.05,1.05 0 0 0 0.78,0.59 l 2,0.3 a 1,1 0 0 1 0.57,1.79 l -1.45,1.39 a 1.07,1.07 0 0 0 -0.31,0.93 l 0.33,2 a 1.06,1.06 0 0 1 -1.54,1.1 l -1.76,-1 a 1.06,1.06 0 0 0 -1,0 l -1.78,0.92 a 1,1 0 0 1 -1.51,-1.12 l 0.36,-2 a 1,1 0 0 0 -0.3,-0.93 l -1.42,-1.41 a 1.05,1.05 0 0 1 0.6,-1.79 l 2,-0.27 a 1,1 0 0 0 0.79,-0.57 l 0.9,-1.78 a 1.06,1.06 0 0 1 1.87,0.05 z"
       style="fill:#4a9fe0"
       id="path59" />
    <circle
       cx="-243.80893"
       cy="292.88077"
       r="2.4200001"
       transform="rotate(-78.76)"
       style="fill:#4a9fe0"
       id="circle59" />
    <path
       d="m 309.81,272.86 c 0,0.14 -41.65,-0.08 -93,-0.5 -51.35,-0.42 -93,-0.88 -93,-1 0,-0.12 41.64,0.08 93,0.5 51.36,0.42 93.01,0.86 93,1 z"
       style="fill:#e0e0e0"
       id="path60" />
    <path
       d="m 309.27,339.48 c 0,0.15 -41,-0.12 -91.59,-0.6 -50.59,-0.48 -91.59,-1 -91.59,-1.12 0,-0.12 41,0.12 91.6,0.6 50.6,0.48 91.58,0.98 91.58,1.12 z"
       style="fill:#e0e0e0"
       id="path61" />
    <path
       d="m 161.35,433.22 a 12.89,12.89 0 1 1 -12.79,-13 12.9,12.9 0 0 1 12.79,13 z"
       style="fill:#e0e0e0"
       id="path62" />
    <path
       d="m 225.32,423.3 c 0,0.14 -12,0.16 -26.71,0 -14.71,-0.16 -26.7,-0.33 -26.7,-0.48 0,-0.15 12,-0.16 26.71,0 14.71,0.16 26.7,0.34 26.7,0.48 z"
       style="fill:#263238"
       id="path63" />
    <path
       d="m 269.28,435.53 c 0,0.14 -21.8,0.08 -48.68,-0.14 -26.88,-0.22 -48.69,-0.52 -48.69,-0.66 0,-0.14 21.8,-0.08 48.69,0.14 26.89,0.22 48.68,0.51 48.68,0.66 z"
       style="fill:#e0e0e0"
       id="path64" />
    <path
       d="m 269.28,445.13 c 0,0.15 -21.8,0.09 -48.68,-0.13 -26.88,-0.22 -48.69,-0.52 -48.69,-0.66 0,-0.14 21.8,-0.09 48.69,0.13 26.89,0.22 48.69,0.53 48.68,0.66 z"
       style="fill:#e0e0e0"
       id="path65" />
    <path
       d="m 299.075,421.45 c 0,0.14 -4.71,0.22 -10.52,0.17 -5.81,-0.05 -10.53,-0.2 -10.53,-0.34 0,-0.14 4.72,-0.22 10.53,-0.18 5.81,0.04 10.52,0.21 10.52,0.35 z"
       style="fill:#263238"
       id="path66" />
    <path
       d="m 242.16,422.72 a 2.42,2.42 0 1 1 -2.4,-2.44 2.42,2.42 0 0 1 2.4,2.44 z"
       style="fill:#4a9fe0"
       id="path67" />
    <rect
       x="125.68"
       y="205.71001"
       width="185.45"
       height="66.620003"
       transform="rotate(0.47,217.97131,238.04425)"
       style="fill:#f5f5f5"
       id="rect67" />
    <circle
       cx="-63.882595"
       cy="273.8374"
       r="12.89"
       transform="rotate(-45)"
       style="fill:#455a64"
       id="circle67" />
    <path
       d="m 225.32,229 c 0,0.15 -12,0.17 -26.7,0.05 -14.7,-0.12 -26.71,-0.34 -26.71,-0.48 0,-0.14 12,-0.17 26.71,0 14.71,0.17 26.7,0.27 26.7,0.43 z"
       style="fill:#263238"
       id="path68" />
    <path
       d="m 269.29,241.21 c 0,0.15 -21.8,0.08 -48.69,-0.14 -26.89,-0.22 -48.69,-0.51 -48.69,-0.66 0,-0.15 21.8,-0.08 48.69,0.14 26.89,0.22 48.69,0.52 48.69,0.66 z"
       style="fill:#e0e0e0"
       id="path69" />
    <path
       d="m 269.29,250.82 c 0,0.14 -21.8,0.08 -48.69,-0.14 -26.89,-0.22 -48.69,-0.51 -48.69,-0.66 0,-0.15 21.8,-0.08 48.7,0.14 26.9,0.22 48.68,0.52 48.68,0.66 z"
       style="fill:#e0e0e0"
       id="path70" />
    <path
       d="m 299.075,227.14 c 0,0.14 -4.72,0.22 -10.53,0.17 a 104.52,104.52 0 0 1 -10.52,-0.35 c 0,-0.14 4.71,-0.22 10.53,-0.17 a 104.52,104.52 0 0 1 10.52,0.35 z"
       style="fill:#263238"
       id="path71" />
    <path
       d="m 289.53673,240.55 c 0,0 -0.08,-0.11 -0.26,-0.27 a 1,1 0 0 0 -0.93,-0.19 0.88,0.88 0 0 0 -0.53,0.41 c -0.13,0.22 -0.26,0.52 -0.4,0.81 l -0.46,1 a 1.27,1.27 0 0 1 -1,0.8 l -1.29,0.2 -0.68,0.1 a 0.82,0.82 0 0 0 -0.49,0.28 0.83,0.83 0 0 0 0,1.09 l 1.14,1.12 0.3,0.29 a 1.33,1.33 0 0 1 0.29,0.4 1.47,1.47 0 0 1 0.07,1 q -0.15,0.85 -0.3,1.74 a 0.79,0.79 0 0 0 0.74,1 c 0.23,0 0.44,-0.12 0.74,-0.27 l 0.85,-0.43 a 4.41,4.41 0 0 1 0.92,-0.42 1.39,1.39 0 0 1 1.06,0.22 l 1.6,0.86 a 0.81,0.81 0 0 0 1.11,-0.43 1.23,1.23 0 0 0 0,-0.71 c 0,-0.28 -0.08,-0.55 -0.13,-0.82 l -0.12,-0.81 a 1.29,1.29 0 0 1 0.17,-0.92 4.18,4.18 0 0 1 0.57,-0.6 l 0.55,-0.51 0.52,-0.49 a 0.91,0.91 0 0 0 0.28,-0.48 0.87,0.87 0 0 0 -0.42,-0.91 5.75,5.75 0 0 0 -1.1,-0.24 l -1,-0.18 a 1.23,1.23 0 0 1 -0.87,-0.48 5.79,5.79 0 0 1 -0.35,-0.72 7.34,7.34 0 0 1 -0.53,-1.34 8.31,8.31 0 0 1 0.72,1.25 6.06,6.06 0 0 0 0.36,0.66 1,1 0 0 0 0.72,0.34 l 1,0.14 a 4.81,4.81 0 0 1 1.22,0.25 1.25,1.25 0 0 1 0.26,2 l -0.52,0.5 -0.53,0.53 a 3.28,3.28 0 0 0 -0.49,0.51 0.88,0.88 0 0 0 -0.1,0.6 c 0.05,0.27 0.09,0.54 0.14,0.81 0.05,0.27 0.09,0.54 0.14,0.82 a 1.69,1.69 0 0 1 0,1 1.3,1.3 0 0 1 -1.8,0.71 l -1.61,-0.86 a 0.91,0.91 0 0 0 -0.72,-0.17 5.8,5.8 0 0 0 -0.79,0.37 l -0.84,0.43 -0.43,0.22 a 1.24,1.24 0 0 1 -0.57,0.11 1.32,1.32 0 0 1 -1.23,-1.57 c 0.11,-0.59 0.22,-1.17 0.32,-1.73 a 1,1 0 0 0 0,-0.69 2,2 0 0 0 -0.49,-0.56 l -1.19,-1.32 a 1.29,1.29 0 0 1 0,-1.68 1.26,1.26 0 0 1 0.75,-0.4 l 0.69,-0.09 1.3,-0.16 a 0.94,0.94 0 0 0 0.77,-0.59 l 0.49,-0.94 c 0.16,-0.29 0.29,-0.55 0.45,-0.82 a 1.14,1.14 0 0 1 0.69,-0.47 1.08,1.08 0 0 1 1.05,0.32 c 0.17,0.23 0.2,0.37 0.19,0.38 z"
       style="fill:#263238"
       id="path72" />
    <path
       d="m 242.16006,228.41 a 2.42,2.42 0 1 1 -2.4,-2.44 2.43,2.43 0 0 1 2.4,2.44 z"
       style="fill:#4a9fe0"
       id="path73" />
    <rect
       x="125.82"
       y="338.51999"
       width="185.45"
       height="66.620003"
       transform="rotate(0.47,218.51631,370.92095)"
       style="fill:#f5f5f5"
       id="rect73" />
    <circle
       cx="-157.78767"
       cy="367.74249"
       r="12.89"
       transform="rotate(-45)"
       style="fill:#455a64"
       id="circle73" />
    <path
       d="m 225.32,361.79 c 0,0.14 -12,0.16 -26.7,0 -14.7,-0.16 -26.71,-0.33 -26.71,-0.48 0,-0.15 12,-0.16 26.71,0 14.71,0.16 26.7,0.34 26.7,0.48 z"
       style="fill:#263238"
       id="path74" />
    <path
       d="m 269.29,374 c 0,0.14 -21.8,0.08 -48.69,-0.14 -26.89,-0.22 -48.69,-0.52 -48.69,-0.66 0,-0.14 21.8,-0.08 48.69,0.14 26.89,0.22 48.69,0.53 48.69,0.66 z"
       style="fill:#e0e0e0"
       id="path75" />
    <path
       d="m 269.3,383.63 c 0,0.14 -21.8,0.08 -48.69,-0.14 -26.89,-0.22 -48.7,-0.49 -48.7,-0.66 0,-0.17 21.8,-0.08 48.7,0.14 26.9,0.22 48.69,0.51 48.69,0.66 z"
       style="fill:#e0e0e0"
       id="path76" />
    <path
       d="m 299.075,359.94 c 0,0.15 -4.72,0.22 -10.53,0.18 -5.81,-0.04 -10.52,-0.21 -10.52,-0.35 0,-0.14 4.71,-0.22 10.53,-0.17 5.82,0.05 10.52,0.2 10.52,0.34 z"
       style="fill:#263238"
       id="path77" />
    <path
       d="m 289.58191,373.35 c 0,0 -0.08,-0.11 -0.26,-0.26 a 1,1 0 0 0 -0.93,-0.2 0.92,0.92 0 0 0 -0.53,0.41 c -0.13,0.23 -0.26,0.53 -0.4,0.82 -0.14,0.29 -0.3,0.62 -0.46,0.95 a 1.26,1.26 0 0 1 -1,0.81 l -1.29,0.19 -0.68,0.11 a 0.82,0.82 0 0 0 -0.48,1.37 l 1.14,1.11 0.3,0.29 a 1.26,1.26 0 0 1 0.29,0.41 1.4,1.4 0 0 1 0.07,1 q -0.15,0.86 -0.3,1.74 a 0.78,0.78 0 0 0 0.74,0.95 1.41,1.41 0 0 0 0.74,-0.26 l 0.85,-0.44 a 5,5 0 0 1 0.92,-0.42 1.43,1.43 0 0 1 1.06,0.23 l 1.6,0.86 a 0.81,0.81 0 0 0 1.11,-0.43 1.23,1.23 0 0 0 0,-0.71 c 0,-0.28 -0.08,-0.56 -0.13,-0.83 l -0.12,-0.8 a 1.28,1.28 0 0 1 0.17,-0.92 4.18,4.18 0 0 1 0.57,-0.6 l 0.55,-0.51 0.52,-0.5 a 0.85,0.85 0 0 0 0.28,-0.48 0.86,0.86 0 0 0 -0.42,-0.9 5.08,5.08 0 0 0 -1.1,-0.24 l -1,-0.18 a 1.24,1.24 0 0 1 -0.87,-0.49 5.73,5.73 0 0 1 -0.35,-0.71 6.94,6.94 0 0 1 -0.53,-1.35 8.88,8.88 0 0 1 0.72,1.26 5.93,5.93 0 0 0 0.36,0.65 1,1 0 0 0 0.72,0.35 l 1,0.14 a 5.23,5.23 0 0 1 1.14,0.23 1.24,1.24 0 0 1 0.64,1.3 1.27,1.27 0 0 1 -0.38,0.72 l -0.52,0.5 -0.53,0.52 a 3.81,3.81 0 0 0 -0.49,0.52 0.87,0.87 0 0 0 -0.1,0.6 c 0.05,0.27 0.09,0.53 0.14,0.8 0.05,0.27 0.09,0.55 0.14,0.83 a 1.77,1.77 0 0 1 0,1 1.32,1.32 0 0 1 -1.81,0.7 c -0.53,-0.28 -1.07,-0.56 -1.61,-0.86 a 1,1 0 0 0 -0.72,-0.17 6,6 0 0 0 -0.79,0.38 l -0.84,0.43 -0.43,0.22 a 1.37,1.37 0 0 1 -0.57,0.1 1.32,1.32 0 0 1 -1.23,-1.56 c 0.11,-0.59 0.22,-1.17 0.32,-1.74 a 1,1 0 0 0 0,-0.69 2.35,2.35 0 0 0 -0.49,-0.56 l -1.14,-1.15 a 1.29,1.29 0 0 1 0,-1.68 1.33,1.33 0 0 1 0.75,-0.41 l 0.69,-0.09 1.3,-0.16 a 0.91,0.91 0 0 0 0.77,-0.58 l 0.49,-0.94 c 0.16,-0.3 0.29,-0.56 0.45,-0.82 a 1.12,1.12 0 0 1 0.69,-0.48 1.1,1.1 0 0 1 1,0.32 c 0.27,0.16 0.27,0.3 0.27,0.3 z"
       style="fill:#263238"
       id="path78" />
    <path
       d="m 242.16,361.21 a 2.42,2.42 0 1 1 -2.4,-2.44 2.42,2.42 0 0 1 2.4,2.44 z"
       style="fill:#4a9fe0"
       id="path79" />
    <g
       id="g89">
      <path
         d="m 153.77,121.64 c 0,0.09 -3.42,0.16 -7.64,0.16 -4.22,0 -7.64,-0.07 -7.64,-0.16 0,-0.09 3.42,-0.16 7.64,-0.16 4.22,0 7.64,0.07 7.64,0.16 z"
         style="fill:#263238"
         id="path83" />
      <path
         d="m 153.77,125.55 c 0,0.09 -3.42,0.16 -7.64,0.16 -4.22,0 -7.64,-0.07 -7.64,-0.16 0,-0.09 3.42,-0.16 7.64,-0.16 4.22,0 7.64,0.07 7.64,0.16 z"
         style="fill:#263238"
         id="path84" />
      <path
         d="m 153.77,129.46 c 0,0.09 -3.42,0.17 -7.64,0.17 -4.22,0 -7.64,-0.08 -7.64,-0.16 0,-0.08 3.42,-0.17 7.64,-0.17 4.22,0 7.64,0.08 7.64,0.16 z"
         style="fill:#263238"
         id="path85" />
    </g>
    <g
       id="g88">
      <path
         d="m 297.18,124.13 c -0.05,0 0,-0.38 -0.22,-1 a 4.13,4.13 0 0 0 -1.52,-2.21 4,4 0 1 0 -0.05,6.41 4.26,4.26 0 0 0 1.56,-2.19 c 0.18,-0.63 0.18,-1 0.23,-1 a 0.94,0.94 0 0 1 0,0.27 3.17,3.17 0 0 1 -0.08,0.78 4.22,4.22 0 0 1 -1.54,2.41 4.4,4.4 0 1 1 0.06,-7 4.18,4.18 0 0 1 1.49,2.44 3,3 0 0 1 0.07,0.78 0.68,0.68 0 0 1 0,0.31 z"
         style="fill:#263238"
         id="path86" />
      <path
         d="m 299.43,131.39 a 8.25,8.25 0 0 1 -2,-1.89 8.33,8.33 0 0 1 -1.69,-2.21 8.25,8.25 0 0 1 2,1.89 8.16,8.16 0 0 1 1.69,2.21 z"
         style="fill:#263238"
         id="path87" />
    </g>
  </g>
</svg>
