<svg xmlns="http://www.w3.org/2000/svg" viewBox="0 0 750 500"><g id="freepik--Plant--inject-2"><path d="M97.79,273.75a87,87,0,0,1,2-14.18c1-4.2,2.42-8.49,5.06-12a15.15,15.15,0,0,1,9.93-6.18c3.89-.48,7.54,1.25,10.45,3.7,3.6,3,6.36,7.06,8.95,10.95a136.3,136.3,0,0,1,7.74,13.54c.07.15-.16.28-.24.13a84,84,0,0,0-6.91-11.33,71.47,71.47,0,0,0-8-9.64c-2.67-2.61-6.06-5-9.93-5.17a12.19,12.19,0,0,0-9.71,5c-2.59,3.31-3.91,7.45-4.9,11.49a86.58,86.58,0,0,0-2,13.49c-.76,9.34-1,18.74-1.18,28.1-.12,5.3-.19,10.6-.24,15.9l-.06,8.06a50.23,50.23,0,0,1-.31,7.76c-.09.52-.94.47-1,0a46.36,46.36,0,0,1-.36-7.36L97,318.4c0-4.95-.07-9.9,0-14.84C97,293.63,97.11,283.66,97.79,273.75Z" style="fill:#263238"></path><path d="M111.14,266.71c.49-2.64,1.38-6.09,2.89-8.13,2.7-3.68,5.62-2.08,2.92,2a24.37,24.37,0,0,0-3.79,10s4.54,6.49,10,9.69c-.24-2.5-.94-6.34-.46-10,1.06-8,5.91-7.57,4.71-1.2a55.47,55.47,0,0,0-1.1,12.89,27.84,27.84,0,0,0,5.86,2.87c-.31-.93-.65-2.05-1-3.4-1.95-7.19,2.84-9.43,3-5.39a56,56,0,0,0,1.86,10.2c2.63.88,4.81,1.49,6.15,2a22.38,22.38,0,0,1,9,6.14,28.3,28.3,0,0,0,6.13-7.93c-1.68-1.44-4.33-3.58-8-6.18-6.89-4.86-4.49-11,1-7.19,3.94,2.76,7,7.87,8.39,10.49a42.52,42.52,0,0,0,3.12-14.35C156.39,264.08,143,257,147,257c3.64,0,11.76,5.33,14.75,7.38a39.39,39.39,0,0,0-.46-4.17c-5.1-3.34-21.67-8.54-19-10,2.9-1.64,14.46,3.71,18,5.41a21,21,0,0,0-3.06-6.35c-7.05-9.43-19.75-12.68-25.3-10.88-3.92,1.27-2.77,11.22-3.61,10.88C112.51,242.89,105.34,247.37,111.14,266.71Zm38.63-1.09c1.11-1.36,6.28,2.62,4.79,4.79S148.32,267.35,149.77,265.62Zm-27-8.49c1.36.86-.65,5.89-2.75,4.37C118.21,260.2,121.37,256.25,122.74,257.13Z" style="fill:#4A9FE0"></path><path d="M124.81,258.67c.71-1.41,1.45-2.81,2.26-4.16a24,24,0,0,1,2.6-3.77c-.22-.28-.44-.56-.67-.83-.09-.11.07-.27.16-.16.27.3.52.61.78.92a.22.22,0,0,1,.11.12q1.45,1.76,2.76,3.6a40.62,40.62,0,0,1,4.58,1.33c1.55.51,3.08,1,4.58,1.68.16.07.08.33-.08.26-1.49-.66-3-1.3-4.54-1.82s-2.94-.87-4.42-1.29c.48.68.95,1.37,1.41,2.06a55.12,55.12,0,0,1,8.09,3.3c2.73,1.3,5.37,2.81,8,4.33.15.08,0,.31-.14.22a88.92,88.92,0,0,0-7.94-4.11c-2.53-1.18-5.16-2.16-7.71-3.29,6.43,10,10.29,21.63,15.45,32.36.08.16-.17.29-.23.13-1.58-3.76-3.39-7.43-5.11-11.13-1.54-3.32-3-6.66-4.58-10-.45-1-.92-1.94-1.39-2.91.28,5.37.17,10.82,1.05,16.12a.14.14,0,1,1-.27,0c-.37-5.73-1.38-11.37-1.34-17.14,0,0,0,0,0-.07-1.09-2.19-2.25-4.35-3.51-6.46-2.13,5-4.37,10.12-5.37,15.51,0,.16-.3.09-.25-.08,1.45-5.4,2.79-10.81,5.4-15.81a61.34,61.34,0,0,0-4.54-6.53c-.71,1.34-1.63,2.6-2.44,3.87s-1.58,2.5-2.31,3.78a55.13,55.13,0,0,0-4,8.51c-.05.16-.32.08-.25-.08C122.15,264.32,123.4,261.44,124.81,258.67Z" style="fill:#263238"></path><path d="M74.08,270.88c4.13-4.14,8.93-9.58,15.31-9.57,6.16,0,10.69,5,13.3,10.09,2.72,5.35,3.7,11.41,4.47,17.3A210.29,210.29,0,0,1,108.79,310c.11,3.94.1,7.9,0,11.85a78.46,78.46,0,0,1-.9,12c-.12.64-1.14.66-1.18,0-.19-3.32,0-6.67,0-10s0-6.56-.16-9.84c-.24-6.62-.72-13.24-1.5-19.83-.68-5.75-1.22-11.67-2.94-17.23-1.56-5-4.47-10.74-9.55-12.94-6.93-3-13.71,2.48-18.24,7.12C74.17,271.17,74,271,74.08,270.88Z" style="fill:#263238"></path><path d="M53,280.13h0c0,.85.08,1.68.14,2.5a15,15,0,0,1,6.77-2.8c5.86-.62,5.48,3.83,1.57,4a22.26,22.26,0,0,0-8,1.61c.95,7.74,3.08,14,3.4,14a114.14,114.14,0,0,0,15.49-2c-1.46-3.11-4.78-7.23-3.09-7.57s3.54,3.34,4.48,7.29A74,74,0,0,0,85,294.18c-2.58-2.24-6.56-5-5-6.2s4.69,2.73,6.58,5.57a22.26,22.26,0,0,0,4.87-2.71c-3.47-5.1-11.94-6.14-10.83-9.83s9,1.43,12.58,8.26c4.18-4.33,5.4-10.46,5-15.7-3.64-.42-10.64.34-10.13-2.27s5.56-2.11,9.7-.59A14.55,14.55,0,0,0,95.25,265c-3.83-4.92-15.53,1.34-15.53,1.34S81,254.53,76.51,252.5c-2.57-1.17-7.11-1.16-11.67,1.52,2.56.21,5.65,1,6.89,2.79,1.58,2.26-.92,3.49-2.51,2.45-1.12-.74-3.22-3.07-7-3.37A23.12,23.12,0,0,0,58,260.56c-.43.61-.83,1.25-1.23,1.95a16.06,16.06,0,0,1,13.7.24c5.07,2.52,2.24,7.79-2.13,5.74s-8.52-4.05-13.15-2.9A32.89,32.89,0,0,0,53,278.71a22.84,22.84,0,0,1,7.51-3.61c5.05-1.32,6.57,1.69,1,2.25A22.26,22.26,0,0,0,53,280.13ZM59.15,272c-.35-1.64,3.22-2.11,3.82-.78C63.47,272.39,59.49,273.67,59.15,272Zm30.59,9c.34-.89,2.73.13,2.52,1.24C92,283.8,89.42,282,89.74,281.08Zm-16.89,5.74c1.74-.7,4.47,3.64,2.57,4.63S71.43,287.39,72.85,286.82Z" style="fill:#4A9FE0"></path><path d="M57.53,298.62c2.63-4.39,5.23-8.81,8-13.12,1.28-2,2.63-4,4-5.91l-.63-.15-1-.2c-.81-.14-1.63-.26-2.44-.34s-1.54-.12-2.31-.13a11.22,11.22,0,0,0-2.46.13c-.1,0-.12-.14,0-.13.83,0,1.67-.08,2.49-.09s1.6,0,2.39.06,1.5.12,2.24.23c.41.06.82.14,1.23.22a6.31,6.31,0,0,1,.73.15c1.43-2,2.9-3.87,4.43-5.75A52.54,52.54,0,0,0,59.76,269c-.08,0,0-.15,0-.13a48.61,48.61,0,0,1,14.59,4.42c.84-1,1.69-2.05,2.54-3.08s2-2.26,2.83-3.47c0-.08.17,0,.1.08a50.58,50.58,0,0,0-3.33,4.08h0a51.36,51.36,0,0,1,5.35,4.3c1.75,1.55,3.46,3.15,5.11,4.8.06.06,0,.16-.09.1-1.64-1.63-3.34-3.19-5.11-4.66s-3.65-2.84-5.43-4.3l0,0c-.41.54-.81,1.08-1.22,1.61-.21.27-.41.54-.62.8,0,0,0,0,0,.06-.69.89-1.37,1.78-2,2.68a22.2,22.2,0,0,1,2,3.66c.58,1.24,1.1,2.53,1.57,3.81A55.89,55.89,0,0,1,78.23,292c0,.08-.11.12-.13,0a47.7,47.7,0,0,0-2.39-8.08c-.51-1.34-1.09-2.65-1.69-4s-1.21-2.33-1.72-3.53c-.59.79-1.18,1.57-1.75,2.36l-.5.7c0,.05,0,.12,0,.12h0c-1.81,2.52-3.53,5.1-5.2,7.71a2,2,0,0,1,.23.58c.11.31.21.63.3.95a19.2,19.2,0,0,1,.46,2c.11.62.2,1.24.26,1.87a18.9,18.9,0,0,0,.16,2.13c0,.1-.15.11-.13,0a6.94,6.94,0,0,0-.14-2c-.1-.68-.23-1.36-.38-2s-.31-1.21-.49-1.8c-.09-.3-.18-.6-.28-.89s-.13-.32-.19-.49q-1.17,1.85-2.32,3.7l-4.52,7.38A.11.11,0,0,1,57.53,298.62Z" style="fill:#263238"></path><path d="M98.07,332.37c.06-2.49.46-5,.73-7.48s.55-5,.82-7.46c.51-4.8.79-9.7,1.92-14.4a20.92,20.92,0,0,1,5.86-10.77,9.57,9.57,0,0,1,5.74-2.74,9.94,9.94,0,0,1,6.11,1.88,21.48,21.48,0,0,1,5.13,5.41,53.83,53.83,0,0,1,4,6.49c0,.09-.09.14-.14.06a33.19,33.19,0,0,0-8.66-9.7,10.18,10.18,0,0,0-5.45-2.27,7.36,7.36,0,0,0-5.29,2.11c-2.9,2.52-4.59,6.24-5.59,9.88a101.12,101.12,0,0,0-2.16,13.31c-.35,2.63-.69,5.27-1,7.9s-.56,5.31-1.12,7.9A.43.43,0,0,1,98.07,332.37Z" style="fill:#263238"></path><path d="M110.32,313a13.57,13.57,0,0,0,2.71,2.76c-.41-2.43-.91-6.74.32-9,1.9-3.57,4.16-1.79,3,1.31a25.25,25.25,0,0,0-1.83,8.8,38.16,38.16,0,0,0,8.27,3.9,14,14,0,0,1-.27-4.25c.38-3.82,3.3-3.75,2.54.22a24.89,24.89,0,0,0-.4,4.66,86.32,86.32,0,0,0,12.89,2.91,37.2,37.2,0,0,0,5.34-9.5c-3.11-.78-9.4-.95-9.26-3.17.18-3,6.27-.69,9.83,1.48a23.7,23.7,0,0,0,1.08-8,39.87,39.87,0,0,0-8.57-1.42c-6.4-.55-6.08-4.18-1.44-4.1,3.42.07,7.74,2.16,9.79,3.25-1.33-8.7-8-14.28-13.29-14.49-9-.36-5.73,10.77-5.73,10.77s-6.06-4.26-11.78-4.15S104.2,304.52,110.32,313Zm23.89-16.1c-.2-1.25,3.8-1.55,4,.06C138.45,298.79,134.42,298.21,134.21,296.93ZM140.64,310c-.09-.81,1.64-1,2,.07C142.93,310.74,140.71,310.8,140.64,310Zm-21.49.77c1.35.19,2.12,5-.2,4.91C117.18,315.6,118,310.59,119.15,310.76Z" style="fill:#4A9FE0"></path><path d="M121,316.11c.22-.6.42-1.21.61-1.82-.17.62-.33,1.24-.44,1.87A.09.09,0,1,1,121,316.11Z" style="fill:#263238"></path><path d="M123.38,308.36c.42-1.23.89-2.45,1.37-3.67.26-.65.52-1.29.81-1.93a8.06,8.06,0,0,1,.8-1.61,11,11,0,0,1-.73-1.56s.05-.09.08,0a19.18,19.18,0,0,1,1.75,2.7l.72,1.28a12.49,12.49,0,0,1,1.51.23c.54.1,1.07.21,1.6.33l1.6.37c.52.13,1.05.3,1.58.38.13,0,.08.22,0,.17a10.64,10.64,0,0,0-1.68-.44c-.51-.11-1-.2-1.54-.27s-1.05-.14-1.57-.19l-1.18-.1.64,1.13a1.62,1.62,0,0,0,.1.18,4.62,4.62,0,0,1,1.28.15c.46.08.93.17,1.38.27.94.21,1.87.43,2.79.68,1.93.54,3.85,1.16,5.76,1.79.1,0,0,.19-.07.16a55.67,55.67,0,0,0-5.78-1.61c-.92-.2-1.83-.41-2.75-.6l-1.38-.3a9.23,9.23,0,0,1-1.07-.23c1,1.81,1.91,3.66,2.76,5.55,1.86,4.1,3.42,8.33,5,12.54,0,.11-.12.18-.16.07a113.8,113.8,0,0,0-5.33-12.26l-1.09-2.18c0,.15-.06.29-.09.44-.09.5-.18,1-.26,1.5-.17,1-.34,2-.49,3a35.41,35.41,0,0,0-.72,6.22c0,.13-.19.12-.17,0,.16-1,.16-2,.22-3s.14-2.09.26-3.13.25-2,.41-3l.27-1.49a2.83,2.83,0,0,1,.28-1.09l-1.58-3.15c-.49-1-1-2-1.51-2.94-.21-.41-.45-.83-.68-1.25a11.52,11.52,0,0,1-.59,1.51l-.69,1.69c-.52,1.25-1,2.51-1.47,3.77-.68,1.79-1.42,3.62-2,5.49C122.31,312,122.77,310.17,123.38,308.36Z" style="fill:#263238"></path><path d="M121.63,314.29c0-.15.09-.29.13-.43C121.72,314,121.67,314.14,121.63,314.29Z" style="fill:#263238"></path><polygon points="83.11 327.52 83.74 340.84 85.36 375.17 120.77 375.17 122.39 340.84 123.02 327.52 83.11 327.52" style="fill:#37474f"></polygon><polygon points="83.11 327.52 83.74 340.84 122.39 340.84 123.02 327.52 83.11 327.52" style="fill:#263238"></polygon><rect x="80.59" y="322.14" width="44.95" height="10.77" transform="translate(206.13 655.05) rotate(180)" style="fill:#37474f"></rect><rect x="111.69" y="375.17" width="6.22" height="5.64" style="fill:#37474f"></rect><rect x="111.69" y="375.17" width="6.22" height="2.82" style="fill:#263238"></rect><rect x="88.22" y="375.17" width="6.21" height="5.64" style="fill:#37474f"></rect><rect x="88.22" y="375.17" width="6.21" height="2.82" style="fill:#263238"></rect></g><g id="freepik--Floor--inject-2"><polygon points="50.72 380.82 131.79 380.58 212.86 380.49 375 380.32 537.14 380.49 618.21 380.58 699.28 380.82 618.21 381.06 537.14 381.15 375 381.32 212.86 381.15 131.79 381.06 50.72 380.82" style="fill:#263238"></polygon></g><g id="freepik--device-1--inject-2"><rect x="163.33" y="104.28" width="421.66" height="282.06" style="fill:#dbdbdb"></rect><rect x="166.39" y="107.72" width="415.53" height="275.18" style="fill:#263238"></rect><rect x="108.41" y="407.49" width="531.5" height="19.36" style="fill:#c7c7c7"></rect><polygon points="108.41 407.49 163.33 386.34 584.99 386.34 639.91 407.49 108.41 407.49" style="fill:#dbdbdb"></polygon><polygon points="168.23 399.99 203.67 386.34 544.65 386.34 580.09 399.99 168.23 399.99" style="fill:#263238"></polygon><rect x="189.88" y="128.63" width="368.57" height="233.37" style="fill:#fff"></rect><rect x="189.88" y="137.61" width="362.02" height="56.41" style="fill:#4A9FE0"></rect><rect x="189.88" y="128.63" width="368.57" height="8.98" style="fill:#455a64"></rect><path d="M198.33,133.12a1.7,1.7,0,1,1-1.7-1.7A1.7,1.7,0,0,1,198.33,133.12Z" style="fill:#c7c7c7"></path><path d="M205.27,133.12a1.7,1.7,0,1,1-1.7-1.7A1.7,1.7,0,0,1,205.27,133.12Z" style="fill:#fff"></path><path d="M212.21,133.12a1.7,1.7,0,1,1-1.7-1.7A1.7,1.7,0,0,1,212.21,133.12Z" style="fill:#4A9FE0"></path><rect x="551.9" y="137.61" width="6.54" height="224.39" style="fill:#dbdbdb"></rect><path d="M555.17,215.4h0a1.69,1.69,0,0,1-1.69-1.69v-73.1a1.69,1.69,0,0,1,1.69-1.69h0a1.69,1.69,0,0,1,1.69,1.69v73.1A1.69,1.69,0,0,1,555.17,215.4Z" style="fill:#a6a6a6"></path><rect x="444.92" y="148.56" width="88.09" height="11.76" style="fill:#fff"></rect><path d="M533.14,160.43H444.8v-12h88.34Zm-88.1-.24H532.9V148.68H445Z" style="fill:#c7c7c7"></path><rect x="521.14" y="148.43" width="12" height="12" style="fill:#455a64"></rect><path d="M530.86,157.73l-1.08.82-2-2.65-.74-1a1.44,1.44,0,0,0,.42-.23A1.8,1.8,0,0,0,528,154l.78,1Z" style="fill:#fff"></path><path d="M528.73,151.47a3,3,0,1,0-1,4.43,3.62,3.62,0,0,0,.41-.27,3.08,3.08,0,0,0,.61-.64A3,3,0,0,0,528.73,151.47Zm-1.28,3.22a1.44,1.44,0,0,1-.42.23,1.77,1.77,0,1,1,1-1A1.8,1.8,0,0,1,527.45,154.69Z" style="fill:#fff"></path><rect x="447.38" y="150.87" width="0.63" height="7.14" style="fill:#c7c7c7"></rect><rect x="237.62" y="148.56" width="202.88" height="11.76" style="fill:#fff"></rect><path d="M440.63,160.43H237.5v-12H440.63Zm-202.89-.24H440.39V148.68H237.74Z" style="fill:#c7c7c7"></path><rect x="240.08" y="150.87" width="0.63" height="7.14" style="fill:#c7c7c7"></rect><polygon points="215.43 158.46 211.15 154.52 215.42 150.42 216.09 151.11 212.55 154.5 216.08 157.75 215.43 158.46" style="fill:#fff"></polygon><polygon points="225.77 150.41 230.05 154.35 225.77 158.45 225.11 157.76 228.65 154.37 225.12 151.12 225.77 150.41" style="fill:#fff"></polygon><rect x="365.05" y="209.47" width="172.01" height="131.98" transform="translate(902.12 550.91) rotate(180)" style="fill:#ebebeb"></rect><path d="M382.17,238.33a15.63,15.63,0,1,0,12.27-12.27A15.64,15.64,0,0,0,382.17,238.33Z" style="fill:#fff"></path><polygon points="421.8 313.01 537.06 313.01 479.43 241.98 421.8 313.01" style="fill:#c7c7c7"></polygon><polygon points="365.05 313.07 467.27 313.07 416.16 266.82 365.05 313.07" style="fill:#dbdbdb"></polygon><rect x="365.05" y="313.01" width="172.01" height="28.43" style="fill:#dbdbdb"></rect><rect x="207.8" y="291.06" width="49.4" height="4.16" style="fill:#a6a6a6"></rect><rect x="207.8" y="300.7" width="142.97" height="4.16" style="fill:#ebebeb"></rect><rect x="207.8" y="309.85" width="142.97" height="4.16" style="fill:#ebebeb"></rect><rect x="207.8" y="318.99" width="142.97" height="4.16" style="fill:#ebebeb"></rect><rect x="207.8" y="328.14" width="142.97" height="4.16" style="fill:#ebebeb"></rect><rect x="207.8" y="337.28" width="142.97" height="4.16" style="fill:#ebebeb"></rect><rect x="207.8" y="209.47" width="49.4" height="11.12" style="fill:#a6a6a6"></rect><rect x="207.8" y="228.25" width="101.5" height="4.16" style="fill:#ebebeb"></rect><rect x="207.8" y="237.4" width="101.5" height="4.16" style="fill:#ebebeb"></rect><rect x="207.8" y="246.54" width="101.5" height="4.16" style="fill:#ebebeb"></rect><rect x="207.8" y="255.69" width="101.5" height="4.16" style="fill:#ebebeb"></rect><rect x="207.8" y="267.85" width="101.5" height="4.16" style="fill:#ebebeb"></rect><rect x="207.8" y="277" width="101.5" height="4.16" style="fill:#ebebeb"></rect><rect x="189.88" y="128.63" width="368.57" height="233.37" style="fill:#fff;opacity:0.7000000000000001"></rect><rect x="290.72" y="184.43" width="168.57" height="133.37" style="fill:#fff"></rect><path d="M459.28,317.79l-168.56.27h-.27v-.27l-.11-133.36v-.38h.38l168.56.14h.24v.24Zm0,0-.23-133.36.23.23-168.56.14.37-.37L291,317.79l-.26-.26Z" style="fill:#263238"></path><rect x="290.72" y="184.43" width="168.57" height="8.98" style="fill:#455a64"></rect><circle cx="297.47" cy="188.92" r="1.7" style="fill:#c7c7c7"></circle><path d="M306.11,188.92a1.7,1.7,0,1,1-1.7-1.7A1.7,1.7,0,0,1,306.11,188.92Z" style="fill:#fff"></path><circle cx="311.35" cy="188.92" r="1.7" style="fill:#4A9FE0"></circle><path d="M353.24,235.28,346.81,229A38.77,38.77,0,0,1,413,251.94l-9,1a29.77,29.77,0,0,0-50.85-17.64Z" style="fill:#4A9FE0"></path><polygon points="395.74 247.22 405.69 270.3 420.7 250.15 395.74 247.22" style="fill:#4A9FE0"></polygon><g style="opacity:0.2"><path d="M353.24,235.28,346.81,229A38.77,38.77,0,0,1,413,251.94l-9,1a29.77,29.77,0,0,0-50.85-17.64Z"></path><polygon points="395.74 247.22 405.69 270.3 420.7 250.15 395.74 247.22"></polygon></g><path d="M359.46,289.41A39,39,0,0,1,337,258.3l9-1A29.77,29.77,0,0,0,398,273.58l6.81,5.88A39,39,0,0,1,359.46,289.41Z" style="fill:#4A9FE0"></path><polygon points="354.26 263.02 344.31 239.94 329.3 260.09 354.26 263.02" style="fill:#4A9FE0"></polygon></g><g id="freepik--Files--inject-2"><polygon points="580.23 109.41 527.83 113.39 522.73 46.12 561.63 43.17 575.13 42.15 576.1 54.96 580.23 109.41" style="fill:#ebebeb"></polygon><rect x="528.7" y="55.4" width="42.81" height="1.73" transform="translate(1102.89 70.74) rotate(175.66)" style="fill:#dbdbdb"></rect><rect x="529.03" y="59.76" width="42.81" height="1.73" transform="translate(1103.88 79.42) rotate(175.66)" style="fill:#dbdbdb"></rect><rect x="529.36" y="64.12" width="42.81" height="1.73" transform="translate(1104.87 88.1) rotate(175.66)" style="fill:#dbdbdb"></rect><rect x="529.69" y="68.48" width="42.81" height="1.73" transform="translate(1105.86 96.78) rotate(175.66)" style="fill:#dbdbdb"></rect><rect x="530.02" y="72.84" width="42.81" height="1.73" transform="translate(1106.85 105.47) rotate(175.66)" style="fill:#dbdbdb"></rect><rect x="530.35" y="77.2" width="42.81" height="1.73" transform="translate(1107.84 114.15) rotate(175.66)" style="fill:#dbdbdb"></rect><rect x="530.68" y="81.56" width="42.81" height="1.73" transform="matrix(-1, 0.08, -0.08, -1, 1108.83, 122.83)" style="fill:#dbdbdb"></rect><rect x="531.02" y="85.92" width="42.81" height="1.73" transform="translate(1109.82 131.51) rotate(175.66)" style="fill:#dbdbdb"></rect><rect x="531.35" y="90.28" width="42.81" height="1.73" transform="matrix(-1, 0.08, -0.08, -1, 1110.82, 140.19)" style="fill:#dbdbdb"></rect><rect x="531.68" y="94.64" width="42.81" height="1.73" transform="translate(1111.81 148.88) rotate(175.66)" style="fill:#dbdbdb"></rect><rect x="532.01" y="99" width="42.81" height="1.73" transform="translate(1112.8 157.56) rotate(175.66)" style="fill:#dbdbdb"></rect><rect x="532.34" y="103.36" width="42.81" height="1.73" transform="translate(1113.79 166.24) rotate(175.66)" style="fill:#dbdbdb"></rect><polygon points="590.23 135.75 542.7 113.33 571.47 52.31 606.76 68.96 613.52 86.35 590.23 135.75" style="fill:#ebebeb"></polygon><polygon points="606.76 68.96 613.52 86.35 601.28 80.58 606.76 68.96" style="fill:#dbdbdb"></polygon><rect x="569.51" y="70.89" width="29.22" height="1.73" transform="translate(1081.85 385.77) rotate(-154.76)" style="fill:#dbdbdb"></rect><rect x="567.65" y="74.84" width="29.22" height="1.73" transform="translate(1076.62 392.51) rotate(-154.76)" style="fill:#dbdbdb"></rect><rect x="565.78" y="78.8" width="29.22" height="1.73" transform="translate(1071.38 399.25) rotate(-154.76)" style="fill:#dbdbdb"></rect><rect x="563.27" y="85.65" width="42.81" height="1.73" transform="translate(1076.61 414.12) rotate(-154.76)" style="fill:#dbdbdb"></rect><rect x="561.4" y="89.6" width="42.81" height="1.73" transform="translate(1071.37 420.86) rotate(-154.76)" style="fill:#dbdbdb"></rect><rect x="559.54" y="93.56" width="42.81" height="1.73" transform="translate(1066.13 427.6) rotate(-154.76)" style="fill:#dbdbdb"></rect><rect x="557.67" y="97.51" width="42.81" height="1.73" transform="translate(1060.9 434.33) rotate(-154.76)" style="fill:#dbdbdb"></rect><rect x="555.81" y="101.47" width="42.81" height="1.73" transform="translate(1055.66 441.07) rotate(-154.76)" style="fill:#dbdbdb"></rect><rect x="553.95" y="105.42" width="42.81" height="1.73" transform="translate(1050.42 447.81) rotate(-154.76)" style="fill:#dbdbdb"></rect><rect x="552.08" y="109.38" width="42.81" height="1.73" transform="translate(1045.18 454.54) rotate(-154.76)" style="fill:#dbdbdb"></rect><rect x="550.22" y="113.33" width="42.81" height="1.73" transform="translate(1039.95 461.28) rotate(-154.76)" style="fill:#dbdbdb"></rect><rect x="548.35" y="117.29" width="42.81" height="1.73" transform="translate(1034.71 468.02) rotate(-154.76)" style="fill:#dbdbdb"></rect><rect x="531.02" y="68.9" width="59.52" height="70.16" transform="translate(777.86 -423.43) rotate(101.87)" style="fill:#4A9FE0"></rect><polygon points="553.39 115.75 592.42 123.95 577.96 95.8 553.39 115.75" style="fill:#4A9FE0"></polygon><g style="opacity:0.30000000000000004"><polygon points="553.39 115.75 592.42 123.95 577.96 95.8 553.39 115.75" style="fill:#fff"></polygon></g><polygon points="534.17 111.73 568.78 119 554.77 99.71 534.17 111.73" style="fill:#4A9FE0"></polygon><g style="opacity:0.5"><polygon points="534.17 111.73 568.78 119 554.77 99.71 534.17 111.73" style="fill:#fff"></polygon></g><rect x="521.29" y="116.56" width="70.16" height="16.73" transform="translate(37.59 -111.75) rotate(11.87)" style="fill:#4A9FE0"></rect><g style="opacity:0.5"><rect x="521.29" y="116.56" width="70.16" height="16.73" transform="translate(37.59 -111.75) rotate(11.87)" style="fill:#fff"></rect></g><path d="M539.66,94.22a5.41,5.41,0,1,0-3.28-5A5.42,5.42,0,0,0,539.66,94.22Z" style="fill:#fff;opacity:0.9"></path><path d="M521.1,80.86l-1-.08.07-1,1,.07Z" style="fill:#263238"></path><path d="M466.9,98.68l-.69-.72c.45-.42.93-.86,1.45-1.32l.66.75C467.81,97.84,467.34,98.27,466.9,98.68Zm2.88-2.54-.63-.77c.48-.4,1-.81,1.52-1.23l.61.79C470.76,95.34,470.26,95.74,469.78,96.14Zm3-2.37-.59-.8c.51-.38,1-.75,1.59-1.13l.57.82C473.85,93,473.32,93.41,472.82,93.77ZM476,91.6l-.55-.85c.54-.34,1.09-.69,1.66-1l.52.86C477.07,90.91,476.52,91.25,476,91.6Zm3.29-2-.5-.87,1.72-.93.47.88C480.4,89,479.84,89.29,479.29,89.6Zm3.4-1.8-.44-.89c.57-.29,1.16-.57,1.76-.84l.42.91C483.84,87.25,483.26,87.52,482.69,87.8Zm3.5-1.6-.39-.92c.59-.25,1.19-.5,1.81-.74l.36.93C487.37,85.71,486.77,86,486.19,86.2Zm3.58-1.41-.33-.94c.6-.21,1.22-.43,1.84-.63l.31,1Zm3.66-1.2-.29-1c.62-.19,1.25-.37,1.88-.54l.26,1Zm3.72-1-.23-1c.62-.15,1.26-.29,1.9-.42l.21,1Zm3.77-.8-.18-1q.94-.18,1.92-.33l.15,1Zm3.8-.59-.13-1c.64-.08,1.29-.16,1.94-.22l.1,1Zm3.83-.39-.08-1q1-.07,1.95-.12l.05,1Q509.51,80.75,508.55,80.82Zm9.63-.14-1.93-.07,0-1,2,.07Zm-5.78-.06,0-1c.64,0,1.3,0,2,0v1C513.67,80.6,513,80.6,512.4,80.62Z" style="fill:#263238"></path><path d="M464.83,100.74l-.72-.68c.21-.23.44-.47.7-.73l.71.7Z" style="fill:#263238"></path><polygon points="466.41 94.04 467.32 94.45 464.64 100.42 470.54 97.57 470.97 98.47 462.61 102.52 466.41 94.04" style="fill:#263238"></polygon><path d="M624.72,165.84l-1-.06a8.48,8.48,0,0,0,0-1h1C624.75,165.49,624.72,165.84,624.72,165.84Z" style="fill:#263238"></path><path d="M623.69,162.84c0-.59-.08-1.25-.15-2l1-.1c.07.76.12,1.43.15,2Zm-.38-4c-.09-.63-.19-1.28-.31-2l1-.17c.12.71.22,1.38.31,2Zm-.68-3.94c-.13-.63-.27-1.28-.43-2l1-.23c.16.68.31,1.34.44,2Zm-.93-3.88c-.17-.63-.35-1.27-.55-1.92l1-.29c.2.66.39,1.31.56,1.94Zm-1.16-3.83c-.21-.61-.43-1.24-.67-1.88l.94-.35c.24.65.47,1.29.68,1.92Zm-1.39-3.74c-.24-.61-.5-1.23-.77-1.85l.92-.4c.27.63.53,1.26.78,1.87Zm-1.59-3.67q-.42-.9-.87-1.8l.89-.45c.31.62.6,1.22.89,1.83Zm-1.79-3.58c-.31-.58-.63-1.16-1-1.75l.87-.49c.34.59.67,1.19,1,1.77Zm-2-3.47c-.33-.57-.69-1.13-1-1.7l.84-.54c.37.58.73,1.15,1.07,1.72Zm-2.15-3.38c-.36-.54-.74-1.09-1.13-1.64l.81-.58c.4.56.78,1.11,1.15,1.67Zm-2.31-3.26c-.39-.53-.8-1.06-1.21-1.59l.78-.62,1.23,1.61ZM606.86,123c-.41-.51-.84-1-1.28-1.53l.76-.66,1.3,1.55Z" style="fill:#263238"></path><path d="M604.25,119.92l-.67-.74.73-.67.68.74Z" style="fill:#263238"></path><polygon points="610.2 121.18 609.73 122.06 603.95 118.97 606.39 125.05 605.46 125.42 602 116.79 610.2 121.18" style="fill:#263238"></polygon></g><g id="freepik--device-2--inject-2"><path d="M657.3,171.06H542.08a11.77,11.77,0,0,0-11.66,11.87v237.2A11.78,11.78,0,0,0,542.08,432H657.3A11.78,11.78,0,0,0,669,420.13V182.93A11.77,11.77,0,0,0,657.3,171.06Zm4.38,241.74c0,6.24-4.67,11.29-10.44,11.29H548.16c-5.78,0-10.46-5-10.46-11.29V191.92c0-12.71,4.68-13.33,10.46-13.33H568.8c1.2,0,2.19,1.36,2.19,3v.73c0,4,2.16,4,4.83,4h47.75c2.68,0,4.83,0,4.83-4v-.73c0-1.69,1-3,2.19-3h20.65c5.77,0,10.44,1.69,10.44,13.33Z" style="fill:#455a64"></path><path d="M606.21,181.4h-13a.8.8,0,0,1-.8-.81h0a.8.8,0,0,1,.8-.8h13a.8.8,0,0,1,.8.8h0A.8.8,0,0,1,606.21,181.4Z" style="fill:#263238"></path><path d="M661.69,191.92V412.8c0,6.24-4.68,11.29-10.45,11.29H548.16c-5.78,0-10.45-5-10.45-11.29V191.92c0-12.71,4.67-13.33,10.45-13.33h20.65c1.2,0,2.18,1.36,2.18,3v.73c0,4,2.16,4,4.83,4h47.75c2.69,0,4.83,0,4.83-4v-.73c0-1.69,1-3,2.19-3h20.65C657,178.59,661.69,180.28,661.69,191.92Z" style="fill:#fff"></path><path d="M661.68,191.92v16.49h-124V191.92c0-12.71,4.68-13.33,10.46-13.33h20.65c1.2,0,2.18,1.36,2.18,3v.73c0,4,2.17,4,4.83,4h47.75c2.68,0,4.84,0,4.84-4v-.73c0-1.69,1-3,2.18-3h20.65C657,178.59,661.68,180.28,661.68,191.92Z" style="fill:#4A9FE0"></path><g id="freepik--u5Zjqx--inject-2"><path d="M565.24,183.55l-.2.19-.11.12a2.66,2.66,0,0,0-1.92-.8,2.7,2.7,0,0,0-1.93.8l-.1-.11-.2-.2h0l.25-.22a3,3,0,0,1,.58-.37,2.47,2.47,0,0,1,.78-.26l.38-.06h.34l.27,0a2.54,2.54,0,0,1,.71.17,3.41,3.41,0,0,1,.48.22,2.83,2.83,0,0,1,.45.32l.21.19Z" style="fill:#fff"></path><path d="M561.72,184.49l-.32-.32a2.27,2.27,0,0,1,1.29-.64,2.22,2.22,0,0,1,1.92.64c-.1.11-.21.21-.31.31A1.83,1.83,0,0,0,563,184,1.8,1.8,0,0,0,561.72,184.49Z" style="fill:#fff"></path><path d="M564,184.8l-.31.31a.94.94,0,0,0-.66-.27.91.91,0,0,0-.66.28l-.32-.32A1.38,1.38,0,0,1,564,184.8Z" style="fill:#fff"></path><path d="M563.29,185.4a.28.28,0,0,1-.28.28.28.28,0,0,1,0-.56A.28.28,0,0,1,563.29,185.4Z" style="fill:#fff"></path></g><path d="M545.79,184.15a.82.82,0,1,1,.82.82A.82.82,0,0,1,545.79,184.15Z" style="fill:#fff"></path><path d="M548.38,184.15a.82.82,0,1,1,.82.82A.82.82,0,0,1,548.38,184.15Z" style="fill:#fff"></path><path d="M551,184.15a.82.82,0,1,1,.82.82A.82.82,0,0,1,551,184.15Z" style="fill:#fff"></path><path d="M553.55,184.15a.83.83,0,1,1,.82.82A.82.82,0,0,1,553.55,184.15Z" style="fill:#fff"></path><path d="M556.14,184.15a.82.82,0,1,1,.82.82A.82.82,0,0,1,556.14,184.15Z" style="fill:#fff"></path><path d="M652.39,186h-6.7v-3.11h6.7ZM646,185.6h6v-2.41h-6Z" style="fill:#fff"></path><rect x="646.25" y="183.37" width="4.31" height="2.05" style="fill:#fff"></rect><rect x="652.39" y="183.57" width="0.59" height="1.66" style="fill:#fff"></rect><path d="M577.93,286.32,571.5,280a38.78,38.78,0,0,1,66.24,23l-9,1a29.77,29.77,0,0,0-50.86-17.63Z" style="fill:#4A9FE0"></path><polygon points="620.44 298.25 630.38 321.33 645.4 301.18 620.44 298.25" style="fill:#4A9FE0"></polygon><g style="opacity:0.2"><path d="M577.93,286.32,571.5,280a38.78,38.78,0,0,1,66.24,23l-9,1a29.77,29.77,0,0,0-50.86-17.63Z"></path><polygon points="620.44 298.25 630.38 321.33 645.4 301.18 620.44 298.25"></polygon></g><path d="M584.16,340.44a39,39,0,0,1-22.5-31.11l8.94-1a29.77,29.77,0,0,0,52.12,16.26l6.82,5.88A39,39,0,0,1,584.16,340.44Z" style="fill:#4A9FE0"></path><polygon points="578.95 314.05 569.01 290.98 553.99 311.13 578.95 314.05" style="fill:#4A9FE0"></polygon></g></svg>